<svg xmlns="http://www.w3.org/2000/svg" xmlns:rdkit="http://www.rdkit.org/xml" xmlns:xlink="http://www.w3.org/1999/xlink" version="1.1" baseProfile="full" xml:space="preserve" width="660px" height="200px" viewBox="0 0 660 200">
<!-- END OF HEADER -->
<rect style="opacity:1.0;fill:#FFFFFF;stroke:none" width="660.0" height="200.0" x="0.0" y="0.0"> </rect>
<path class="bond-0 atom-0 atom-1" d="M 38.6,129.6 L 37.1,100.9" style="fill:none;fill-rule:evenodd;stroke:#000000;stroke-width:2.0px;stroke-linecap:butt;stroke-linejoin:miter;stroke-opacity:1"/>
<path class="bond-1 atom-1 atom-2" d="M 37.1,100.9 L 11.5,87.9" style="fill:none;fill-rule:evenodd;stroke:#000000;stroke-width:2.0px;stroke-linecap:butt;stroke-linejoin:miter;stroke-opacity:1"/>
<path class="bond-1 atom-1 atom-2" d="M 36.8,95.9 L 15.7,85.2" style="fill:none;fill-rule:evenodd;stroke:#000000;stroke-width:2.0px;stroke-linecap:butt;stroke-linejoin:miter;stroke-opacity:1"/>
<path class="bond-2 atom-2 atom-3" d="M 11.5,87.9 L 10.0,59.2" style="fill:none;fill-rule:evenodd;stroke:#000000;stroke-width:2.0px;stroke-linecap:butt;stroke-linejoin:miter;stroke-opacity:1"/>
<path class="bond-3 atom-3 atom-4" d="M 10.0,59.2 L 34.1,43.6" style="fill:none;fill-rule:evenodd;stroke:#000000;stroke-width:2.0px;stroke-linecap:butt;stroke-linejoin:miter;stroke-opacity:1"/>
<path class="bond-3 atom-3 atom-4" d="M 14.4,61.5 L 34.3,48.6" style="fill:none;fill-rule:evenodd;stroke:#000000;stroke-width:2.0px;stroke-linecap:butt;stroke-linejoin:miter;stroke-opacity:1"/>
<path class="bond-4 atom-4 atom-5" d="M 34.1,43.6 L 59.6,56.6" style="fill:none;fill-rule:evenodd;stroke:#000000;stroke-width:2.0px;stroke-linecap:butt;stroke-linejoin:miter;stroke-opacity:1"/>
<path class="bond-5 atom-5 atom-6" d="M 59.6,56.6 L 61.1,85.3" style="fill:none;fill-rule:evenodd;stroke:#000000;stroke-width:2.0px;stroke-linecap:butt;stroke-linejoin:miter;stroke-opacity:1"/>
<path class="bond-5 atom-5 atom-6" d="M 55.5,59.3 L 56.7,83.0" style="fill:none;fill-rule:evenodd;stroke:#000000;stroke-width:2.0px;stroke-linecap:butt;stroke-linejoin:miter;stroke-opacity:1"/>
<path class="bond-6 atom-6 atom-7" d="M 61.1,85.3 L 71.9,90.8" style="fill:none;fill-rule:evenodd;stroke:#000000;stroke-width:2.0px;stroke-linecap:butt;stroke-linejoin:miter;stroke-opacity:1"/>
<path class="bond-6 atom-6 atom-7" d="M 71.9,90.8 L 82.7,96.3" style="fill:none;fill-rule:evenodd;stroke:#0000FF;stroke-width:2.0px;stroke-linecap:butt;stroke-linejoin:miter;stroke-opacity:1"/>
<path class="bond-7 atom-7 atom-8" d="M 90.7,95.7 L 106.7,85.3" style="fill:none;fill-rule:evenodd;stroke:#0000FF;stroke-width:2.0px;stroke-linecap:butt;stroke-linejoin:miter;stroke-opacity:1"/>
<path class="bond-7 atom-7 atom-8" d="M 90.2,90.9 L 104.4,81.7" style="fill:none;fill-rule:evenodd;stroke:#0000FF;stroke-width:2.0px;stroke-linecap:butt;stroke-linejoin:miter;stroke-opacity:1"/>
<path class="bond-8 atom-8 atom-9" d="M 114.8,84.7 L 125.5,90.2" style="fill:none;fill-rule:evenodd;stroke:#0000FF;stroke-width:2.0px;stroke-linecap:butt;stroke-linejoin:miter;stroke-opacity:1"/>
<path class="bond-8 atom-8 atom-9" d="M 125.5,90.2 L 136.3,95.7" style="fill:none;fill-rule:evenodd;stroke:#000000;stroke-width:2.0px;stroke-linecap:butt;stroke-linejoin:miter;stroke-opacity:1"/>
<path class="bond-9 atom-9 atom-10" d="M 136.3,95.7 L 137.8,124.3" style="fill:none;fill-rule:evenodd;stroke:#000000;stroke-width:2.0px;stroke-linecap:butt;stroke-linejoin:miter;stroke-opacity:1"/>
<path class="bond-9 atom-9 atom-10" d="M 140.7,98.0 L 142.0,121.6" style="fill:none;fill-rule:evenodd;stroke:#000000;stroke-width:2.0px;stroke-linecap:butt;stroke-linejoin:miter;stroke-opacity:1"/>
<path class="bond-10 atom-10 atom-11" d="M 137.8,124.3 L 163.4,137.4" style="fill:none;fill-rule:evenodd;stroke:#000000;stroke-width:2.0px;stroke-linecap:butt;stroke-linejoin:miter;stroke-opacity:1"/>
<path class="bond-11 atom-11 atom-12" d="M 163.4,137.4 L 187.4,121.7" style="fill:none;fill-rule:evenodd;stroke:#000000;stroke-width:2.0px;stroke-linecap:butt;stroke-linejoin:miter;stroke-opacity:1"/>
<path class="bond-11 atom-11 atom-12" d="M 163.1,132.4 L 183.0,119.5" style="fill:none;fill-rule:evenodd;stroke:#000000;stroke-width:2.0px;stroke-linecap:butt;stroke-linejoin:miter;stroke-opacity:1"/>
<path class="bond-12 atom-12 atom-13" d="M 187.4,121.7 L 185.9,93.1" style="fill:none;fill-rule:evenodd;stroke:#000000;stroke-width:2.0px;stroke-linecap:butt;stroke-linejoin:miter;stroke-opacity:1"/>
<path class="bond-13 atom-13 atom-14" d="M 185.9,93.1 L 210.0,77.5" style="fill:none;fill-rule:evenodd;stroke:#000000;stroke-width:2.0px;stroke-linecap:butt;stroke-linejoin:miter;stroke-opacity:1"/>
<path class="bond-13 atom-13 atom-14" d="M 185.7,88.1 L 205.6,75.2" style="fill:none;fill-rule:evenodd;stroke:#000000;stroke-width:2.0px;stroke-linecap:butt;stroke-linejoin:miter;stroke-opacity:1"/>
<path class="bond-14 atom-14 atom-15" d="M 210.0,77.5 L 208.5,48.8" style="fill:none;fill-rule:evenodd;stroke:#000000;stroke-width:2.0px;stroke-linecap:butt;stroke-linejoin:miter;stroke-opacity:1"/>
<path class="bond-15 atom-15 atom-16" d="M 208.5,48.8 L 182.9,35.8" style="fill:none;fill-rule:evenodd;stroke:#000000;stroke-width:2.0px;stroke-linecap:butt;stroke-linejoin:miter;stroke-opacity:1"/>
<path class="bond-15 atom-15 atom-16" d="M 204.3,51.5 L 183.2,40.8" style="fill:none;fill-rule:evenodd;stroke:#000000;stroke-width:2.0px;stroke-linecap:butt;stroke-linejoin:miter;stroke-opacity:1"/>
<path class="bond-16 atom-16 atom-17" d="M 182.9,35.8 L 158.9,51.4" style="fill:none;fill-rule:evenodd;stroke:#000000;stroke-width:2.0px;stroke-linecap:butt;stroke-linejoin:miter;stroke-opacity:1"/>
<path class="bond-17 atom-17 atom-18" d="M 158.9,51.4 L 160.4,80.1" style="fill:none;fill-rule:evenodd;stroke:#000000;stroke-width:2.0px;stroke-linecap:butt;stroke-linejoin:miter;stroke-opacity:1"/>
<path class="bond-17 atom-17 atom-18" d="M 163.3,53.7 L 164.5,77.4" style="fill:none;fill-rule:evenodd;stroke:#000000;stroke-width:2.0px;stroke-linecap:butt;stroke-linejoin:miter;stroke-opacity:1"/>
<path class="bond-18 atom-10 atom-19" d="M 137.8,124.3 L 128.1,130.6" style="fill:none;fill-rule:evenodd;stroke:#000000;stroke-width:2.0px;stroke-linecap:butt;stroke-linejoin:miter;stroke-opacity:1"/>
<path class="bond-18 atom-10 atom-19" d="M 128.1,130.6 L 118.4,136.9" style="fill:none;fill-rule:evenodd;stroke:#FF0000;stroke-width:2.0px;stroke-linecap:butt;stroke-linejoin:miter;stroke-opacity:1"/>
<path class="bond-19 atom-6 atom-1" d="M 61.1,85.3 L 37.1,100.9" style="fill:none;fill-rule:evenodd;stroke:#000000;stroke-width:2.0px;stroke-linecap:butt;stroke-linejoin:miter;stroke-opacity:1"/>
<path class="bond-20 atom-18 atom-9" d="M 160.4,80.1 L 136.3,95.7" style="fill:none;fill-rule:evenodd;stroke:#000000;stroke-width:2.0px;stroke-linecap:butt;stroke-linejoin:miter;stroke-opacity:1"/>
<path class="bond-21 atom-18 atom-13" d="M 160.4,80.1 L 185.9,93.1" style="fill:none;fill-rule:evenodd;stroke:#000000;stroke-width:2.0px;stroke-linecap:butt;stroke-linejoin:miter;stroke-opacity:1"/>
<path d="M 12.8,88.5 L 11.5,87.9 L 11.4,86.5" style="fill:none;stroke:#000000;stroke-width:2.0px;stroke-linecap:butt;stroke-linejoin:miter;stroke-opacity:1;"/>
<path d="M 10.1,60.7 L 10.0,59.2 L 11.2,58.5" style="fill:none;stroke:#000000;stroke-width:2.0px;stroke-linecap:butt;stroke-linejoin:miter;stroke-opacity:1;"/>
<path d="M 32.9,44.4 L 34.1,43.6 L 35.3,44.3" style="fill:none;stroke:#000000;stroke-width:2.0px;stroke-linecap:butt;stroke-linejoin:miter;stroke-opacity:1;"/>
<path d="M 58.3,56.0 L 59.6,56.6 L 59.7,58.1" style="fill:none;stroke:#000000;stroke-width:2.0px;stroke-linecap:butt;stroke-linejoin:miter;stroke-opacity:1;"/>
<path d="M 162.1,136.7 L 163.4,137.4 L 164.6,136.6" style="fill:none;stroke:#000000;stroke-width:2.0px;stroke-linecap:butt;stroke-linejoin:miter;stroke-opacity:1;"/>
<path d="M 186.2,122.5 L 187.4,121.7 L 187.4,120.3" style="fill:none;stroke:#000000;stroke-width:2.0px;stroke-linecap:butt;stroke-linejoin:miter;stroke-opacity:1;"/>
<path d="M 208.8,78.2 L 210.0,77.5 L 209.9,76.0" style="fill:none;stroke:#000000;stroke-width:2.0px;stroke-linecap:butt;stroke-linejoin:miter;stroke-opacity:1;"/>
<path d="M 208.6,50.2 L 208.5,48.8 L 207.2,48.2" style="fill:none;stroke:#000000;stroke-width:2.0px;stroke-linecap:butt;stroke-linejoin:miter;stroke-opacity:1;"/>
<path d="M 184.2,36.4 L 182.9,35.8 L 181.7,36.6" style="fill:none;stroke:#000000;stroke-width:2.0px;stroke-linecap:butt;stroke-linejoin:miter;stroke-opacity:1;"/>
<path d="M 160.1,50.6 L 158.9,51.4 L 158.9,52.9" style="fill:none;stroke:#000000;stroke-width:2.0px;stroke-linecap:butt;stroke-linejoin:miter;stroke-opacity:1;"/>
<path class="atom-7" d="M 84.9 94.2 L 87.6 98.5 Q 87.8 99.0, 88.2 99.7 Q 88.7 100.5, 88.7 100.6 L 88.7 94.2 L 89.8 94.2 L 89.8 102.4 L 88.7 102.4 L 85.8 97.7 Q 85.5 97.1, 85.1 96.5 Q 84.8 95.8, 84.7 95.7 L 84.7 102.4 L 83.6 102.4 L 83.6 94.2 L 84.9 94.2 " fill="#0000FF"/>
<path class="atom-8" d="M 109.0 78.6 L 111.6 82.9 Q 111.9 83.3, 112.3 84.1 Q 112.7 84.9, 112.8 84.9 L 112.8 78.6 L 113.8 78.6 L 113.8 86.7 L 112.7 86.7 L 109.9 82.0 Q 109.5 81.5, 109.2 80.9 Q 108.8 80.2, 108.7 80.0 L 108.7 86.7 L 107.7 86.7 L 107.7 78.6 L 109.0 78.6 " fill="#0000FF"/>
<path class="atom-19" d="M 102.0 136.0 L 103.1 136.0 L 103.1 139.4 L 107.3 139.4 L 107.3 136.0 L 108.4 136.0 L 108.4 144.1 L 107.3 144.1 L 107.3 140.3 L 103.1 140.3 L 103.1 144.1 L 102.0 144.1 L 102.0 136.0 " fill="#FF0000"/>
<path class="atom-19" d="M 110.0 140.0 Q 110.0 138.0, 111.0 137.0 Q 112.0 135.9, 113.8 135.9 Q 115.6 135.9, 116.5 137.0 Q 117.5 138.0, 117.5 140.0 Q 117.5 142.0, 116.5 143.1 Q 115.5 144.2, 113.8 144.2 Q 112.0 144.2, 111.0 143.1 Q 110.0 142.0, 110.0 140.0 M 113.8 143.3 Q 115.0 143.3, 115.7 142.5 Q 116.3 141.6, 116.3 140.0 Q 116.3 138.4, 115.7 137.6 Q 115.0 136.8, 113.8 136.8 Q 112.5 136.8, 111.8 137.6 Q 111.2 138.4, 111.2 140.0 Q 111.2 141.6, 111.8 142.5 Q 112.5 143.3, 113.8 143.3 " fill="#FF0000"/>
<path class="legend" d="M 93.4 180.1 L 94.8 180.1 L 94.8 181.4 L 93.4 181.4 L 93.4 180.1 M 93.4 183.1 L 94.8 183.1 L 94.8 191.1 L 93.4 191.1 L 93.4 183.1 " fill="#000000"/>
<path class="legend" d="M 106.1 182.9 Q 107.5 182.9, 108.1 183.7 Q 108.8 184.4, 108.8 185.8 L 108.8 191.1 L 107.4 191.1 L 107.4 185.9 Q 107.4 185.0, 107.0 184.5 Q 106.6 184.1, 105.8 184.1 Q 105.1 184.1, 104.5 184.4 Q 103.9 184.8, 103.6 185.4 Q 103.6 185.5, 103.6 185.8 L 103.6 191.1 L 102.1 191.1 L 102.1 185.9 Q 102.1 185.0, 101.7 184.5 Q 101.4 184.1, 100.6 184.1 Q 99.9 184.1, 99.3 184.4 Q 98.7 184.8, 98.3 185.3 L 98.3 191.1 L 96.8 191.1 L 96.8 183.1 L 98.0 183.1 L 98.2 184.2 Q 99.2 182.9, 100.8 182.9 Q 102.7 182.9, 103.3 184.3 Q 104.4 182.9, 106.1 182.9 " fill="#000000"/>
<path class="legend" d="M 118.0 183.1 L 118.0 191.6 Q 118.0 195.0, 114.3 195.0 Q 112.6 195.0, 111.0 194.2 L 111.5 193.1 Q 112.3 193.5, 113.0 193.7 Q 113.6 193.8, 114.3 193.8 Q 115.5 193.8, 116.0 193.3 Q 116.5 192.8, 116.5 191.6 L 116.5 190.2 Q 115.7 191.2, 114.2 191.2 Q 112.6 191.2, 111.6 190.2 Q 110.7 189.1, 110.7 187.2 Q 110.7 185.2, 111.8 184.1 Q 112.9 182.9, 114.8 182.9 Q 115.8 182.9, 116.8 183.2 L 116.8 183.1 L 118.0 183.1 M 114.3 190.1 Q 115.1 190.1, 115.7 189.6 Q 116.3 189.2, 116.5 188.4 L 116.5 184.3 Q 115.7 184.1, 114.8 184.1 Q 113.6 184.1, 112.9 184.9 Q 112.2 185.7, 112.2 187.2 Q 112.2 188.6, 112.7 189.3 Q 113.3 190.1, 114.3 190.1 " fill="#000000"/>
<path class="legend" d="M 120.6 189.8 L 123.0 189.8 L 123.0 181.6 L 120.3 182.4 L 120.0 181.5 L 123.3 180.0 L 124.4 180.2 L 124.4 189.8 L 126.6 189.8 L 126.6 191.1 L 120.6 191.1 L 120.6 189.8 " fill="#000000"/>
<path class="bond-0 atom-0 atom-1" d="M 372.8,109.8 L 349.8,126.9" style="fill:none;fill-rule:evenodd;stroke:#000000;stroke-width:2.0px;stroke-linecap:butt;stroke-linejoin:miter;stroke-opacity:1"/>
<path class="bond-0 atom-0 atom-1" d="M 368.2,107.8 L 349.2,122.0" style="fill:none;fill-rule:evenodd;stroke:#000000;stroke-width:2.0px;stroke-linecap:butt;stroke-linejoin:miter;stroke-opacity:1"/>
<path class="bond-1 atom-1 atom-2" d="M 349.8,126.9 L 323.4,115.5" style="fill:none;fill-rule:evenodd;stroke:#000000;stroke-width:2.0px;stroke-linecap:butt;stroke-linejoin:miter;stroke-opacity:1"/>
<path class="bond-2 atom-2 atom-3" d="M 323.4,115.5 L 320.1,87.0" style="fill:none;fill-rule:evenodd;stroke:#000000;stroke-width:2.0px;stroke-linecap:butt;stroke-linejoin:miter;stroke-opacity:1"/>
<path class="bond-2 atom-2 atom-3" d="M 327.4,112.6 L 324.7,89.0" style="fill:none;fill-rule:evenodd;stroke:#000000;stroke-width:2.0px;stroke-linecap:butt;stroke-linejoin:miter;stroke-opacity:1"/>
<path class="bond-3 atom-3 atom-4" d="M 320.1,87.0 L 343.1,69.9" style="fill:none;fill-rule:evenodd;stroke:#000000;stroke-width:2.0px;stroke-linecap:butt;stroke-linejoin:miter;stroke-opacity:1"/>
<path class="bond-4 atom-4 atom-5" d="M 343.1,69.9 L 369.4,81.3" style="fill:none;fill-rule:evenodd;stroke:#000000;stroke-width:2.0px;stroke-linecap:butt;stroke-linejoin:miter;stroke-opacity:1"/>
<path class="bond-4 atom-4 atom-5" d="M 343.7,74.8 L 365.5,84.2" style="fill:none;fill-rule:evenodd;stroke:#000000;stroke-width:2.0px;stroke-linecap:butt;stroke-linejoin:miter;stroke-opacity:1"/>
<path class="bond-5 atom-5 atom-6" d="M 369.4,81.3 L 380.2,73.2" style="fill:none;fill-rule:evenodd;stroke:#000000;stroke-width:2.0px;stroke-linecap:butt;stroke-linejoin:miter;stroke-opacity:1"/>
<path class="bond-5 atom-5 atom-6" d="M 380.2,73.2 L 391.0,65.2" style="fill:none;fill-rule:evenodd;stroke:#A01EEF;stroke-width:2.0px;stroke-linecap:butt;stroke-linejoin:miter;stroke-opacity:1"/>
<path class="bond-6 atom-3 atom-7" d="M 320.1,87.0 L 293.7,75.7" style="fill:none;fill-rule:evenodd;stroke:#000000;stroke-width:2.0px;stroke-linecap:butt;stroke-linejoin:miter;stroke-opacity:1"/>
<path class="bond-7 atom-7 atom-8" d="M 293.5,73.2 L 283.8,80.4" style="fill:none;fill-rule:evenodd;stroke:#000000;stroke-width:2.0px;stroke-linecap:butt;stroke-linejoin:miter;stroke-opacity:1"/>
<path class="bond-7 atom-7 atom-8" d="M 283.8,80.4 L 274.1,87.6" style="fill:none;fill-rule:evenodd;stroke:#FF0000;stroke-width:2.0px;stroke-linecap:butt;stroke-linejoin:miter;stroke-opacity:1"/>
<path class="bond-7 atom-7 atom-8" d="M 296.0,76.7 L 286.4,83.9" style="fill:none;fill-rule:evenodd;stroke:#000000;stroke-width:2.0px;stroke-linecap:butt;stroke-linejoin:miter;stroke-opacity:1"/>
<path class="bond-7 atom-7 atom-8" d="M 286.4,83.9 L 276.7,91.1" style="fill:none;fill-rule:evenodd;stroke:#FF0000;stroke-width:2.0px;stroke-linecap:butt;stroke-linejoin:miter;stroke-opacity:1"/>
<path class="bond-8 atom-7 atom-9" d="M 293.7,75.7 L 292.4,64.0" style="fill:none;fill-rule:evenodd;stroke:#000000;stroke-width:2.0px;stroke-linecap:butt;stroke-linejoin:miter;stroke-opacity:1"/>
<path class="bond-8 atom-7 atom-9" d="M 292.4,64.0 L 291.0,52.4" style="fill:none;fill-rule:evenodd;stroke:#FF0000;stroke-width:2.0px;stroke-linecap:butt;stroke-linejoin:miter;stroke-opacity:1"/>
<path class="bond-9 atom-2 atom-10" d="M 323.4,115.5 L 314.3,122.4" style="fill:none;fill-rule:evenodd;stroke:#000000;stroke-width:2.0px;stroke-linecap:butt;stroke-linejoin:miter;stroke-opacity:1"/>
<path class="bond-9 atom-2 atom-10" d="M 314.3,122.4 L 305.1,129.2" style="fill:none;fill-rule:evenodd;stroke:#FF0000;stroke-width:2.0px;stroke-linecap:butt;stroke-linejoin:miter;stroke-opacity:1"/>
<path class="bond-10 atom-5 atom-0" d="M 369.4,81.3 L 372.8,109.8" style="fill:none;fill-rule:evenodd;stroke:#000000;stroke-width:2.0px;stroke-linecap:butt;stroke-linejoin:miter;stroke-opacity:1"/>
<path d="M 371.6,110.6 L 372.8,109.8 L 372.6,108.3" style="fill:none;stroke:#000000;stroke-width:2.0px;stroke-linecap:butt;stroke-linejoin:miter;stroke-opacity:1;"/>
<path d="M 350.9,126.0 L 349.8,126.9 L 348.5,126.3" style="fill:none;stroke:#000000;stroke-width:2.0px;stroke-linecap:butt;stroke-linejoin:miter;stroke-opacity:1;"/>
<path d="M 341.9,70.8 L 343.1,69.9 L 344.4,70.5" style="fill:none;stroke:#000000;stroke-width:2.0px;stroke-linecap:butt;stroke-linejoin:miter;stroke-opacity:1;"/>
<path d="M 295.1,76.3 L 293.7,75.7 L 293.7,75.1" style="fill:none;stroke:#000000;stroke-width:2.0px;stroke-linecap:butt;stroke-linejoin:miter;stroke-opacity:1;"/>
<path class="atom-6" d="M 391.9 60.0 L 393.0 60.0 L 393.0 68.2 L 391.9 68.2 L 391.9 60.0 " fill="#A01EEF"/>
<path class="atom-8" d="M 267.0 92.9 Q 267.0 90.9, 268.0 89.8 Q 268.9 88.7, 270.7 88.7 Q 272.5 88.7, 273.5 89.8 Q 274.5 90.9, 274.5 92.9 Q 274.5 94.8, 273.5 96.0 Q 272.5 97.1, 270.7 97.1 Q 268.9 97.1, 268.0 96.0 Q 267.0 94.8, 267.0 92.9 M 270.7 96.1 Q 272.0 96.1, 272.6 95.3 Q 273.3 94.5, 273.3 92.9 Q 273.3 91.3, 272.6 90.5 Q 272.0 89.6, 270.7 89.6 Q 269.5 89.6, 268.8 90.4 Q 268.2 91.2, 268.2 92.9 Q 268.2 94.5, 268.8 95.3 Q 269.5 96.1, 270.7 96.1 " fill="#FF0000"/>
<path class="atom-9" d="M 286.7 47.2 Q 286.7 45.3, 287.6 44.2 Q 288.6 43.1, 290.4 43.1 Q 292.2 43.1, 293.2 44.2 Q 294.1 45.3, 294.1 47.2 Q 294.1 49.2, 293.2 50.3 Q 292.2 51.4, 290.4 51.4 Q 288.6 51.4, 287.6 50.3 Q 286.7 49.2, 286.7 47.2 M 290.4 50.5 Q 291.6 50.5, 292.3 49.7 Q 293.0 48.8, 293.0 47.2 Q 293.0 45.6, 292.3 44.8 Q 291.6 44.0, 290.4 44.0 Q 289.2 44.0, 288.5 44.8 Q 287.8 45.6, 287.8 47.2 Q 287.8 48.9, 288.5 49.7 Q 289.2 50.5, 290.4 50.5 " fill="#FF0000"/>
<path class="atom-9" d="M 295.4 43.2 L 296.5 43.2 L 296.5 46.6 L 300.7 46.6 L 300.7 43.2 L 301.8 43.2 L 301.8 51.3 L 300.7 51.3 L 300.7 47.6 L 296.5 47.6 L 296.5 51.3 L 295.4 51.3 L 295.4 43.2 " fill="#FF0000"/>
<path class="atom-10" d="M 288.7 128.7 L 289.8 128.7 L 289.8 132.1 L 293.9 132.1 L 293.9 128.7 L 295.0 128.7 L 295.0 136.8 L 293.9 136.8 L 293.9 133.0 L 289.8 133.0 L 289.8 136.8 L 288.7 136.8 L 288.7 128.7 " fill="#FF0000"/>
<path class="atom-10" d="M 296.7 132.7 Q 296.7 130.8, 297.7 129.7 Q 298.6 128.6, 300.4 128.6 Q 302.2 128.6, 303.2 129.7 Q 304.2 130.8, 304.2 132.7 Q 304.2 134.7, 303.2 135.8 Q 302.2 136.9, 300.4 136.9 Q 298.6 136.9, 297.7 135.8 Q 296.7 134.7, 296.7 132.7 M 300.4 136.0 Q 301.7 136.0, 302.3 135.2 Q 303.0 134.3, 303.0 132.7 Q 303.0 131.1, 302.3 130.3 Q 301.7 129.5, 300.4 129.5 Q 299.2 129.5, 298.5 130.3 Q 297.8 131.1, 297.8 132.7 Q 297.8 134.3, 298.5 135.2 Q 299.2 136.0, 300.4 136.0 " fill="#FF0000"/>
<path class="legend" d="M 313.0 180.1 L 314.5 180.1 L 314.5 181.5 L 313.0 181.5 L 313.0 180.1 M 313.0 183.1 L 314.5 183.1 L 314.5 191.1 L 313.0 191.1 L 313.0 183.1 " fill="#000000"/>
<path class="legend" d="M 325.7 183.0 Q 327.1 183.0, 327.7 183.7 Q 328.4 184.4, 328.4 185.8 L 328.4 191.1 L 327.0 191.1 L 327.0 185.9 Q 327.0 185.0, 326.6 184.6 Q 326.2 184.1, 325.4 184.1 Q 324.7 184.1, 324.1 184.5 Q 323.5 184.8, 323.2 185.4 Q 323.2 185.5, 323.2 185.8 L 323.2 191.1 L 321.7 191.1 L 321.7 185.9 Q 321.7 185.0, 321.4 184.6 Q 321.0 184.1, 320.2 184.1 Q 319.5 184.1, 318.9 184.5 Q 318.3 184.8, 318.0 185.4 L 318.0 191.1 L 316.5 191.1 L 316.5 183.1 L 317.7 183.1 L 317.9 184.2 Q 318.9 183.0, 320.5 183.0 Q 322.4 183.0, 323.0 184.4 Q 324.0 183.0, 325.7 183.0 " fill="#000000"/>
<path class="legend" d="M 337.6 183.1 L 337.6 191.6 Q 337.6 195.0, 333.9 195.0 Q 332.2 195.0, 330.6 194.2 L 331.1 193.1 Q 332.0 193.5, 332.6 193.7 Q 333.2 193.9, 333.9 193.9 Q 335.1 193.9, 335.6 193.3 Q 336.1 192.8, 336.1 191.6 L 336.1 190.2 Q 335.3 191.2, 333.8 191.2 Q 332.2 191.2, 331.2 190.2 Q 330.3 189.2, 330.3 187.2 Q 330.3 185.2, 331.4 184.1 Q 332.5 183.0, 334.4 183.0 Q 335.4 183.0, 336.4 183.3 L 336.4 183.1 L 337.6 183.1 M 333.9 190.1 Q 334.7 190.1, 335.3 189.6 Q 335.9 189.2, 336.1 188.4 L 336.1 184.4 Q 335.3 184.1, 334.4 184.1 Q 333.2 184.1, 332.5 185.0 Q 331.8 185.8, 331.8 187.2 Q 331.8 188.6, 332.4 189.4 Q 332.9 190.1, 333.9 190.1 " fill="#000000"/>
<path class="legend" d="M 339.6 182.2 Q 340.0 181.2, 341.0 180.6 Q 341.9 180.0, 343.3 180.0 Q 344.9 180.0, 345.8 180.9 Q 346.8 181.8, 346.8 183.4 Q 346.8 185.0, 345.6 186.5 Q 344.4 188.1, 341.9 189.9 L 347.0 189.9 L 347.0 191.1 L 339.6 191.1 L 339.6 190.1 Q 341.6 188.6, 342.8 187.5 Q 344.0 186.4, 344.6 185.5 Q 345.2 184.5, 345.2 183.5 Q 345.2 182.4, 344.7 181.8 Q 344.2 181.2, 343.3 181.2 Q 342.4 181.2, 341.8 181.6 Q 341.2 182.0, 340.8 182.7 L 339.6 182.2 " fill="#000000"/>
<path class="bond-0 atom-0 atom-1" d="M 512.6,155.5 L 496.9,131.5" style="fill:none;fill-rule:evenodd;stroke:#000000;stroke-width:2.0px;stroke-linecap:butt;stroke-linejoin:miter;stroke-opacity:1"/>
<path class="bond-0 atom-0 atom-1" d="M 514.9,151.0 L 501.9,131.2" style="fill:none;fill-rule:evenodd;stroke:#000000;stroke-width:2.0px;stroke-linecap:butt;stroke-linejoin:miter;stroke-opacity:1"/>
<path class="bond-1 atom-1 atom-2" d="M 496.9,131.5 L 509.8,105.9" style="fill:none;fill-rule:evenodd;stroke:#000000;stroke-width:2.0px;stroke-linecap:butt;stroke-linejoin:miter;stroke-opacity:1"/>
<path class="bond-2 atom-2 atom-3" d="M 509.8,105.9 L 538.4,104.2" style="fill:none;fill-rule:evenodd;stroke:#000000;stroke-width:2.0px;stroke-linecap:butt;stroke-linejoin:miter;stroke-opacity:1"/>
<path class="bond-2 atom-2 atom-3" d="M 512.5,110.0 L 536.2,108.7" style="fill:none;fill-rule:evenodd;stroke:#000000;stroke-width:2.0px;stroke-linecap:butt;stroke-linejoin:miter;stroke-opacity:1"/>
<path class="bond-3 atom-3 atom-4" d="M 538.4,104.2 L 554.2,128.2" style="fill:none;fill-rule:evenodd;stroke:#000000;stroke-width:2.0px;stroke-linecap:butt;stroke-linejoin:miter;stroke-opacity:1"/>
<path class="bond-4 atom-4 atom-5" d="M 554.2,128.2 L 541.3,153.8" style="fill:none;fill-rule:evenodd;stroke:#000000;stroke-width:2.0px;stroke-linecap:butt;stroke-linejoin:miter;stroke-opacity:1"/>
<path class="bond-4 atom-4 atom-5" d="M 549.2,128.5 L 538.5,149.7" style="fill:none;fill-rule:evenodd;stroke:#000000;stroke-width:2.0px;stroke-linecap:butt;stroke-linejoin:miter;stroke-opacity:1"/>
<path class="bond-5 atom-3 atom-6" d="M 538.4,104.2 L 551.3,78.6" style="fill:none;fill-rule:evenodd;stroke:#000000;stroke-width:2.0px;stroke-linecap:butt;stroke-linejoin:miter;stroke-opacity:1"/>
<path class="bond-6 atom-6 atom-7" d="M 551.3,78.6 L 558.6,50.8" style="fill:none;fill-rule:evenodd;stroke:#000000;stroke-width:2.0px;stroke-linecap:butt;stroke-linejoin:miter;stroke-opacity:1"/>
<path class="bond-7 atom-7 atom-8" d="M 561.3,50.7 L 553.8,41.6" style="fill:none;fill-rule:evenodd;stroke:#000000;stroke-width:2.0px;stroke-linecap:butt;stroke-linejoin:miter;stroke-opacity:1"/>
<path class="bond-7 atom-7 atom-8" d="M 553.8,41.6 L 546.4,32.5" style="fill:none;fill-rule:evenodd;stroke:#FF0000;stroke-width:2.0px;stroke-linecap:butt;stroke-linejoin:miter;stroke-opacity:1"/>
<path class="bond-7 atom-7 atom-8" d="M 558.0,53.4 L 550.5,44.3" style="fill:none;fill-rule:evenodd;stroke:#000000;stroke-width:2.0px;stroke-linecap:butt;stroke-linejoin:miter;stroke-opacity:1"/>
<path class="bond-7 atom-7 atom-8" d="M 550.5,44.3 L 543.0,35.2" style="fill:none;fill-rule:evenodd;stroke:#FF0000;stroke-width:2.0px;stroke-linecap:butt;stroke-linejoin:miter;stroke-opacity:1"/>
<path class="bond-8 atom-7 atom-9" d="M 558.6,50.8 L 570.9,50.1" style="fill:none;fill-rule:evenodd;stroke:#000000;stroke-width:2.0px;stroke-linecap:butt;stroke-linejoin:miter;stroke-opacity:1"/>
<path class="bond-8 atom-7 atom-9" d="M 570.9,50.1 L 583.2,49.4" style="fill:none;fill-rule:evenodd;stroke:#0000FF;stroke-width:2.0px;stroke-linecap:butt;stroke-linejoin:miter;stroke-opacity:1"/>
<path class="bond-9 atom-9 atom-10" d="M 589.2,54.2 L 593.5,65.1" style="fill:none;fill-rule:evenodd;stroke:#0000FF;stroke-width:2.0px;stroke-linecap:butt;stroke-linejoin:miter;stroke-opacity:1"/>
<path class="bond-9 atom-9 atom-10" d="M 593.5,65.1 L 597.7,75.9" style="fill:none;fill-rule:evenodd;stroke:#000000;stroke-width:2.0px;stroke-linecap:butt;stroke-linejoin:miter;stroke-opacity:1"/>
<path class="bond-10 atom-10 atom-11" d="M 595.6,77.6 L 607.9,80.9" style="fill:none;fill-rule:evenodd;stroke:#000000;stroke-width:2.0px;stroke-linecap:butt;stroke-linejoin:miter;stroke-opacity:1"/>
<path class="bond-10 atom-10 atom-11" d="M 607.9,80.9 L 620.2,84.1" style="fill:none;fill-rule:evenodd;stroke:#FF0000;stroke-width:2.0px;stroke-linecap:butt;stroke-linejoin:miter;stroke-opacity:1"/>
<path class="bond-10 atom-10 atom-11" d="M 596.7,73.5 L 609.0,76.7" style="fill:none;fill-rule:evenodd;stroke:#000000;stroke-width:2.0px;stroke-linecap:butt;stroke-linejoin:miter;stroke-opacity:1"/>
<path class="bond-10 atom-10 atom-11" d="M 609.0,76.7 L 621.3,79.9" style="fill:none;fill-rule:evenodd;stroke:#FF0000;stroke-width:2.0px;stroke-linecap:butt;stroke-linejoin:miter;stroke-opacity:1"/>
<path class="bond-11 atom-10 atom-12" d="M 597.7,75.9 L 588.6,83.4" style="fill:none;fill-rule:evenodd;stroke:#000000;stroke-width:2.0px;stroke-linecap:butt;stroke-linejoin:miter;stroke-opacity:1"/>
<path class="bond-11 atom-10 atom-12" d="M 588.6,83.4 L 579.5,90.8" style="fill:none;fill-rule:evenodd;stroke:#0000FF;stroke-width:2.0px;stroke-linecap:butt;stroke-linejoin:miter;stroke-opacity:1"/>
<path class="bond-12 atom-6 atom-13" d="M 551.3,78.6 L 524.5,68.4" style="fill:none;fill-rule:evenodd;stroke:#000000;stroke-width:2.0px;stroke-linecap:butt;stroke-linejoin:miter;stroke-opacity:1"/>
<path class="bond-13 atom-13 atom-14" d="M 524.5,68.4 L 519.9,40.1" style="fill:none;fill-rule:evenodd;stroke:#000000;stroke-width:2.0px;stroke-linecap:butt;stroke-linejoin:miter;stroke-opacity:1"/>
<path class="bond-13 atom-13 atom-14" d="M 519.9,66.7 L 516.0,43.3" style="fill:none;fill-rule:evenodd;stroke:#000000;stroke-width:2.0px;stroke-linecap:butt;stroke-linejoin:miter;stroke-opacity:1"/>
<path class="bond-14 atom-14 atom-15" d="M 519.9,40.1 L 493.0,30.0" style="fill:none;fill-rule:evenodd;stroke:#000000;stroke-width:2.0px;stroke-linecap:butt;stroke-linejoin:miter;stroke-opacity:1"/>
<path class="bond-15 atom-15 atom-16" d="M 493.0,30.0 L 470.8,48.1" style="fill:none;fill-rule:evenodd;stroke:#000000;stroke-width:2.0px;stroke-linecap:butt;stroke-linejoin:miter;stroke-opacity:1"/>
<path class="bond-15 atom-15 atom-16" d="M 493.8,34.9 L 475.5,49.9" style="fill:none;fill-rule:evenodd;stroke:#000000;stroke-width:2.0px;stroke-linecap:butt;stroke-linejoin:miter;stroke-opacity:1"/>
<path class="bond-16 atom-16 atom-17" d="M 470.8,48.1 L 475.5,76.5" style="fill:none;fill-rule:evenodd;stroke:#000000;stroke-width:2.0px;stroke-linecap:butt;stroke-linejoin:miter;stroke-opacity:1"/>
<path class="bond-17 atom-17 atom-18" d="M 475.5,76.5 L 502.3,86.6" style="fill:none;fill-rule:evenodd;stroke:#000000;stroke-width:2.0px;stroke-linecap:butt;stroke-linejoin:miter;stroke-opacity:1"/>
<path class="bond-17 atom-17 atom-18" d="M 479.3,73.3 L 501.5,81.7" style="fill:none;fill-rule:evenodd;stroke:#000000;stroke-width:2.0px;stroke-linecap:butt;stroke-linejoin:miter;stroke-opacity:1"/>
<path class="bond-18 atom-5 atom-0" d="M 541.3,153.8 L 512.6,155.5" style="fill:none;fill-rule:evenodd;stroke:#000000;stroke-width:2.0px;stroke-linecap:butt;stroke-linejoin:miter;stroke-opacity:1"/>
<path class="bond-19 atom-12 atom-6" d="M 571.4,91.5 L 561.4,85.1" style="fill:none;fill-rule:evenodd;stroke:#0000FF;stroke-width:2.0px;stroke-linecap:butt;stroke-linejoin:miter;stroke-opacity:1"/>
<path class="bond-19 atom-12 atom-6" d="M 561.4,85.1 L 551.3,78.6" style="fill:none;fill-rule:evenodd;stroke:#000000;stroke-width:2.0px;stroke-linecap:butt;stroke-linejoin:miter;stroke-opacity:1"/>
<path class="bond-20 atom-18 atom-13" d="M 502.3,86.6 L 524.5,68.4" style="fill:none;fill-rule:evenodd;stroke:#000000;stroke-width:2.0px;stroke-linecap:butt;stroke-linejoin:miter;stroke-opacity:1"/>
<path d="M 511.8,154.3 L 512.6,155.5 L 514.1,155.4" style="fill:none;stroke:#000000;stroke-width:2.0px;stroke-linecap:butt;stroke-linejoin:miter;stroke-opacity:1;"/>
<path d="M 497.7,132.7 L 496.9,131.5 L 497.5,130.2" style="fill:none;stroke:#000000;stroke-width:2.0px;stroke-linecap:butt;stroke-linejoin:miter;stroke-opacity:1;"/>
<path d="M 509.1,107.1 L 509.8,105.9 L 511.2,105.8" style="fill:none;stroke:#000000;stroke-width:2.0px;stroke-linecap:butt;stroke-linejoin:miter;stroke-opacity:1;"/>
<path d="M 553.4,127.0 L 554.2,128.2 L 553.5,129.5" style="fill:none;stroke:#000000;stroke-width:2.0px;stroke-linecap:butt;stroke-linejoin:miter;stroke-opacity:1;"/>
<path d="M 541.9,152.5 L 541.3,153.8 L 539.8,153.9" style="fill:none;stroke:#000000;stroke-width:2.0px;stroke-linecap:butt;stroke-linejoin:miter;stroke-opacity:1;"/>
<path d="M 558.3,52.2 L 558.6,50.8 L 559.2,50.8" style="fill:none;stroke:#000000;stroke-width:2.0px;stroke-linecap:butt;stroke-linejoin:miter;stroke-opacity:1;"/>
<path d="M 597.5,75.4 L 597.7,75.9 L 597.2,76.3" style="fill:none;stroke:#000000;stroke-width:2.0px;stroke-linecap:butt;stroke-linejoin:miter;stroke-opacity:1;"/>
<path d="M 520.1,41.5 L 519.9,40.1 L 518.5,39.6" style="fill:none;stroke:#000000;stroke-width:2.0px;stroke-linecap:butt;stroke-linejoin:miter;stroke-opacity:1;"/>
<path d="M 494.4,30.5 L 493.0,30.0 L 491.9,30.9" style="fill:none;stroke:#000000;stroke-width:2.0px;stroke-linecap:butt;stroke-linejoin:miter;stroke-opacity:1;"/>
<path d="M 471.9,47.2 L 470.8,48.1 L 471.1,49.6" style="fill:none;stroke:#000000;stroke-width:2.0px;stroke-linecap:butt;stroke-linejoin:miter;stroke-opacity:1;"/>
<path d="M 475.2,75.0 L 475.5,76.5 L 476.8,77.0" style="fill:none;stroke:#000000;stroke-width:2.0px;stroke-linecap:butt;stroke-linejoin:miter;stroke-opacity:1;"/>
<path d="M 501.0,86.1 L 502.3,86.6 L 503.4,85.7" style="fill:none;stroke:#000000;stroke-width:2.0px;stroke-linecap:butt;stroke-linejoin:miter;stroke-opacity:1;"/>
<path class="atom-8" d="M 536.7 28.7 Q 536.7 26.7, 537.7 25.6 Q 538.7 24.5, 540.5 24.5 Q 542.3 24.5, 543.2 25.6 Q 544.2 26.7, 544.2 28.7 Q 544.2 30.6, 543.2 31.8 Q 542.2 32.9, 540.5 32.9 Q 538.7 32.9, 537.7 31.8 Q 536.7 30.6, 536.7 28.7 M 540.5 32.0 Q 541.7 32.0, 542.4 31.1 Q 543.1 30.3, 543.1 28.7 Q 543.1 27.1, 542.4 26.3 Q 541.7 25.4, 540.5 25.4 Q 539.2 25.4, 538.6 26.3 Q 537.9 27.1, 537.9 28.7 Q 537.9 30.3, 538.6 31.1 Q 539.2 32.0, 540.5 32.0 " fill="#FF0000"/>
<path class="atom-9" d="M 585.5 45.1 L 588.1 49.5 Q 588.4 49.9, 588.8 50.6 Q 589.3 51.4, 589.3 51.5 L 589.3 45.1 L 590.4 45.1 L 590.4 53.3 L 589.2 53.3 L 586.4 48.6 Q 586.1 48.0, 585.7 47.4 Q 585.4 46.8, 585.2 46.6 L 585.2 53.3 L 584.2 53.3 L 584.2 45.1 L 585.5 45.1 " fill="#0000FF"/>
<path class="atom-9" d="M 591.9 45.1 L 593.0 45.1 L 593.0 48.6 L 597.2 48.6 L 597.2 45.1 L 598.3 45.1 L 598.3 53.3 L 597.2 53.3 L 597.2 49.5 L 593.0 49.5 L 593.0 53.3 L 591.9 53.3 L 591.9 45.1 " fill="#0000FF"/>
<path class="atom-11" d="M 621.7 83.3 Q 621.7 81.3, 622.7 80.2 Q 623.6 79.1, 625.4 79.1 Q 627.2 79.1, 628.2 80.2 Q 629.2 81.3, 629.2 83.3 Q 629.2 85.2, 628.2 86.4 Q 627.2 87.5, 625.4 87.5 Q 623.6 87.5, 622.7 86.4 Q 621.7 85.2, 621.7 83.3 M 625.4 86.6 Q 626.7 86.6, 627.3 85.7 Q 628.0 84.9, 628.0 83.3 Q 628.0 81.7, 627.3 80.9 Q 626.7 80.0, 625.4 80.0 Q 624.2 80.0, 623.5 80.8 Q 622.8 81.7, 622.8 83.3 Q 622.8 84.9, 623.5 85.7 Q 624.2 86.6, 625.4 86.6 " fill="#FF0000"/>
<path class="atom-12" d="M 573.7 90.0 L 576.3 94.3 Q 576.6 94.8, 577.0 95.5 Q 577.5 96.3, 577.5 96.4 L 577.5 90.0 L 578.6 90.0 L 578.6 98.2 L 577.4 98.2 L 574.6 93.5 Q 574.3 92.9, 573.9 92.3 Q 573.6 91.6, 573.4 91.5 L 573.4 98.2 L 572.4 98.2 L 572.4 90.0 L 573.7 90.0 " fill="#0000FF"/>
<path class="atom-12" d="M 572.3 99.0 L 573.4 99.0 L 573.4 102.4 L 577.6 102.4 L 577.6 99.0 L 578.7 99.0 L 578.7 107.1 L 577.6 107.1 L 577.6 103.4 L 573.4 103.4 L 573.4 107.1 L 572.3 107.1 L 572.3 99.0 " fill="#0000FF"/>
<path class="legend" d="M 533.1 180.1 L 534.5 180.1 L 534.5 181.5 L 533.1 181.5 L 533.1 180.1 M 533.1 183.1 L 534.5 183.1 L 534.5 191.1 L 533.1 191.1 L 533.1 183.1 " fill="#000000"/>
<path class="legend" d="M 545.7 183.0 Q 547.1 183.0, 547.8 183.7 Q 548.4 184.4, 548.4 185.8 L 548.4 191.1 L 547.0 191.1 L 547.0 185.9 Q 547.0 185.0, 546.6 184.6 Q 546.3 184.1, 545.4 184.1 Q 544.7 184.1, 544.1 184.5 Q 543.6 184.8, 543.2 185.4 Q 543.2 185.5, 543.2 185.8 L 543.2 191.1 L 541.8 191.1 L 541.8 185.9 Q 541.8 185.0, 541.4 184.6 Q 541.0 184.1, 540.2 184.1 Q 539.5 184.1, 538.9 184.5 Q 538.3 184.8, 538.0 185.4 L 538.0 191.1 L 536.5 191.1 L 536.5 183.1 L 537.7 183.1 L 537.9 184.2 Q 538.9 183.0, 540.5 183.0 Q 542.4 183.0, 543.0 184.4 Q 544.0 183.0, 545.7 183.0 " fill="#000000"/>
<path class="legend" d="M 557.6 183.1 L 557.6 191.6 Q 557.6 195.0, 553.9 195.0 Q 552.2 195.0, 550.6 194.2 L 551.1 193.1 Q 552.0 193.5, 552.6 193.7 Q 553.2 193.9, 553.9 193.9 Q 555.1 193.9, 555.6 193.3 Q 556.1 192.8, 556.1 191.6 L 556.1 190.2 Q 555.3 191.2, 553.8 191.2 Q 552.2 191.2, 551.2 190.2 Q 550.3 189.2, 550.3 187.2 Q 550.3 185.2, 551.4 184.1 Q 552.5 183.0, 554.4 183.0 Q 555.4 183.0, 556.4 183.3 L 556.4 183.1 L 557.6 183.1 M 553.9 190.1 Q 554.7 190.1, 555.3 189.6 Q 555.9 189.2, 556.1 188.4 L 556.1 184.4 Q 555.3 184.1, 554.4 184.1 Q 553.2 184.1, 552.5 185.0 Q 551.8 185.8, 551.8 187.2 Q 551.8 188.6, 552.4 189.4 Q 552.9 190.1, 553.9 190.1 " fill="#000000"/>
<path class="legend" d="M 564.8 185.3 Q 565.9 185.6, 566.4 186.3 Q 566.9 187.0, 566.9 188.1 Q 566.9 189.0, 566.5 189.8 Q 566.0 190.5, 565.2 190.9 Q 564.3 191.3, 563.2 191.3 Q 562.0 191.3, 561.1 190.9 Q 560.3 190.4, 559.6 189.6 L 560.4 188.7 Q 561.1 189.4, 561.7 189.7 Q 562.3 190.0, 563.2 190.0 Q 564.2 190.0, 564.8 189.5 Q 565.4 189.0, 565.4 188.1 Q 565.4 187.0, 564.8 186.5 Q 564.1 186.0, 562.8 186.0 L 562.0 186.0 L 562.0 184.8 L 562.7 184.8 Q 563.9 184.8, 564.5 184.3 Q 565.2 183.8, 565.2 182.8 Q 565.2 182.1, 564.6 181.7 Q 564.1 181.2, 563.2 181.2 Q 562.3 181.2, 561.7 181.6 Q 561.2 181.9, 560.7 182.7 L 559.7 182.1 Q 560.0 181.2, 561.0 180.6 Q 561.9 180.0, 563.2 180.0 Q 564.8 180.0, 565.8 180.8 Q 566.7 181.5, 566.7 182.8 Q 566.7 183.7, 566.2 184.3 Q 565.8 185.0, 564.8 185.3 " fill="#000000"/>
</svg>