<svg xmlns="http://www.w3.org/2000/svg" xmlns:rdkit="http://www.rdkit.org/xml" xmlns:xlink="http://www.w3.org/1999/xlink" version="1.1" baseProfile="full" xml:space="preserve" width="660px" height="200px" viewBox="0 0 660 200">
<!-- END OF HEADER -->
<rect style="opacity:1.0;fill:#FFFFFF;stroke:none" width="220.0" height="200.0" x="0.0" y="0.0"> </rect>
<path class="bond-0 atom-0 atom-1" d="M 39.3,130.2 L 37.8,101.8" style="fill:none;fill-rule:evenodd;stroke:#000000;stroke-width:2.0px;stroke-linecap:butt;stroke-linejoin:miter;stroke-opacity:1"/>
<path class="bond-1 atom-1 atom-2" d="M 37.8,101.8 L 12.5,88.9" style="fill:none;fill-rule:evenodd;stroke:#000000;stroke-width:2.0px;stroke-linecap:butt;stroke-linejoin:miter;stroke-opacity:1"/>
<path class="bond-1 atom-1 atom-2" d="M 37.5,96.9 L 16.6,86.2" style="fill:none;fill-rule:evenodd;stroke:#000000;stroke-width:2.0px;stroke-linecap:butt;stroke-linejoin:miter;stroke-opacity:1"/>
<path class="bond-2 atom-2 atom-3" d="M 12.5,88.9 L 11.0,60.5" style="fill:none;fill-rule:evenodd;stroke:#000000;stroke-width:2.0px;stroke-linecap:butt;stroke-linejoin:miter;stroke-opacity:1"/>
<path class="bond-3 atom-3 atom-4" d="M 11.0,60.5 L 34.8,45.1" style="fill:none;fill-rule:evenodd;stroke:#000000;stroke-width:2.0px;stroke-linecap:butt;stroke-linejoin:miter;stroke-opacity:1"/>
<path class="bond-3 atom-3 atom-4" d="M 15.4,62.8 L 35.1,50.0" style="fill:none;fill-rule:evenodd;stroke:#000000;stroke-width:2.0px;stroke-linecap:butt;stroke-linejoin:miter;stroke-opacity:1"/>
<path class="bond-4 atom-4 atom-5" d="M 34.8,45.1 L 60.1,58.0" style="fill:none;fill-rule:evenodd;stroke:#000000;stroke-width:2.0px;stroke-linecap:butt;stroke-linejoin:miter;stroke-opacity:1"/>
<path class="bond-5 atom-5 atom-6" d="M 60.1,58.0 L 61.6,86.3" style="fill:none;fill-rule:evenodd;stroke:#000000;stroke-width:2.0px;stroke-linecap:butt;stroke-linejoin:miter;stroke-opacity:1"/>
<path class="bond-5 atom-5 atom-6" d="M 56.0,60.6 L 57.2,84.1" style="fill:none;fill-rule:evenodd;stroke:#000000;stroke-width:2.0px;stroke-linecap:butt;stroke-linejoin:miter;stroke-opacity:1"/>
<path class="bond-6 atom-6 atom-7" d="M 61.6,86.3 L 72.3,91.8" style="fill:none;fill-rule:evenodd;stroke:#000000;stroke-width:2.0px;stroke-linecap:butt;stroke-linejoin:miter;stroke-opacity:1"/>
<path class="bond-6 atom-6 atom-7" d="M 72.3,91.8 L 82.9,97.2" style="fill:none;fill-rule:evenodd;stroke:#0000FF;stroke-width:2.0px;stroke-linecap:butt;stroke-linejoin:miter;stroke-opacity:1"/>
<path class="bond-7 atom-7 atom-8" d="M 89.8,94.8 L 105.6,84.6" style="fill:none;fill-rule:evenodd;stroke:#0000FF;stroke-width:2.0px;stroke-linecap:butt;stroke-linejoin:miter;stroke-opacity:1"/>
<path class="bond-7 atom-7 atom-8" d="M 92.1,98.4 L 107.9,88.1" style="fill:none;fill-rule:evenodd;stroke:#0000FF;stroke-width:2.0px;stroke-linecap:butt;stroke-linejoin:miter;stroke-opacity:1"/>
<path class="bond-8 atom-8 atom-9" d="M 114.7,85.8 L 125.4,91.2" style="fill:none;fill-rule:evenodd;stroke:#0000FF;stroke-width:2.0px;stroke-linecap:butt;stroke-linejoin:miter;stroke-opacity:1"/>
<path class="bond-8 atom-8 atom-9" d="M 125.4,91.2 L 136.1,96.6" style="fill:none;fill-rule:evenodd;stroke:#000000;stroke-width:2.0px;stroke-linecap:butt;stroke-linejoin:miter;stroke-opacity:1"/>
<path class="bond-9 atom-9 atom-10" d="M 136.1,96.6 L 137.5,125.0" style="fill:none;fill-rule:evenodd;stroke:#000000;stroke-width:2.0px;stroke-linecap:butt;stroke-linejoin:miter;stroke-opacity:1"/>
<path class="bond-9 atom-9 atom-10" d="M 140.4,98.9 L 141.7,122.3" style="fill:none;fill-rule:evenodd;stroke:#000000;stroke-width:2.0px;stroke-linecap:butt;stroke-linejoin:miter;stroke-opacity:1"/>
<path class="bond-10 atom-10 atom-11" d="M 137.5,125.0 L 162.9,137.9" style="fill:none;fill-rule:evenodd;stroke:#000000;stroke-width:2.0px;stroke-linecap:butt;stroke-linejoin:miter;stroke-opacity:1"/>
<path class="bond-11 atom-11 atom-12" d="M 162.9,137.9 L 186.7,122.4" style="fill:none;fill-rule:evenodd;stroke:#000000;stroke-width:2.0px;stroke-linecap:butt;stroke-linejoin:miter;stroke-opacity:1"/>
<path class="bond-11 atom-11 atom-12" d="M 162.6,133.0 L 182.3,120.2" style="fill:none;fill-rule:evenodd;stroke:#000000;stroke-width:2.0px;stroke-linecap:butt;stroke-linejoin:miter;stroke-opacity:1"/>
<path class="bond-12 atom-12 atom-13" d="M 186.7,122.4 L 185.2,94.1" style="fill:none;fill-rule:evenodd;stroke:#000000;stroke-width:2.0px;stroke-linecap:butt;stroke-linejoin:miter;stroke-opacity:1"/>
<path class="bond-13 atom-13 atom-14" d="M 185.2,94.1 L 209.0,78.6" style="fill:none;fill-rule:evenodd;stroke:#000000;stroke-width:2.0px;stroke-linecap:butt;stroke-linejoin:miter;stroke-opacity:1"/>
<path class="bond-13 atom-13 atom-14" d="M 184.9,89.1 L 204.6,76.4" style="fill:none;fill-rule:evenodd;stroke:#000000;stroke-width:2.0px;stroke-linecap:butt;stroke-linejoin:miter;stroke-opacity:1"/>
<path class="bond-14 atom-14 atom-15" d="M 209.0,78.6 L 207.5,50.2" style="fill:none;fill-rule:evenodd;stroke:#000000;stroke-width:2.0px;stroke-linecap:butt;stroke-linejoin:miter;stroke-opacity:1"/>
<path class="bond-15 atom-15 atom-16" d="M 207.5,50.2 L 182.2,37.3" style="fill:none;fill-rule:evenodd;stroke:#000000;stroke-width:2.0px;stroke-linecap:butt;stroke-linejoin:miter;stroke-opacity:1"/>
<path class="bond-15 atom-15 atom-16" d="M 203.4,52.9 L 182.5,42.2" style="fill:none;fill-rule:evenodd;stroke:#000000;stroke-width:2.0px;stroke-linecap:butt;stroke-linejoin:miter;stroke-opacity:1"/>
<path class="bond-16 atom-16 atom-17" d="M 182.2,37.3 L 158.4,52.8" style="fill:none;fill-rule:evenodd;stroke:#000000;stroke-width:2.0px;stroke-linecap:butt;stroke-linejoin:miter;stroke-opacity:1"/>
<path class="bond-17 atom-17 atom-18" d="M 158.4,52.8 L 159.9,81.2" style="fill:none;fill-rule:evenodd;stroke:#000000;stroke-width:2.0px;stroke-linecap:butt;stroke-linejoin:miter;stroke-opacity:1"/>
<path class="bond-17 atom-17 atom-18" d="M 162.8,55.0 L 164.0,78.5" style="fill:none;fill-rule:evenodd;stroke:#000000;stroke-width:2.0px;stroke-linecap:butt;stroke-linejoin:miter;stroke-opacity:1"/>
<path class="bond-18 atom-10 atom-19" d="M 137.5,125.0 L 127.9,131.2" style="fill:none;fill-rule:evenodd;stroke:#000000;stroke-width:2.0px;stroke-linecap:butt;stroke-linejoin:miter;stroke-opacity:1"/>
<path class="bond-18 atom-10 atom-19" d="M 127.9,131.2 L 118.4,137.5" style="fill:none;fill-rule:evenodd;stroke:#FF0000;stroke-width:2.0px;stroke-linecap:butt;stroke-linejoin:miter;stroke-opacity:1"/>
<path class="bond-19 atom-6 atom-1" d="M 61.6,86.3 L 37.8,101.8" style="fill:none;fill-rule:evenodd;stroke:#000000;stroke-width:2.0px;stroke-linecap:butt;stroke-linejoin:miter;stroke-opacity:1"/>
<path class="bond-20 atom-18 atom-9" d="M 159.9,81.2 L 136.1,96.6" style="fill:none;fill-rule:evenodd;stroke:#000000;stroke-width:2.0px;stroke-linecap:butt;stroke-linejoin:miter;stroke-opacity:1"/>
<path class="bond-21 atom-18 atom-13" d="M 159.9,81.2 L 185.2,94.1" style="fill:none;fill-rule:evenodd;stroke:#000000;stroke-width:2.0px;stroke-linecap:butt;stroke-linejoin:miter;stroke-opacity:1"/>
<path d="M 13.8,89.6 L 12.5,88.9 L 12.4,87.5" style="fill:none;stroke:#000000;stroke-width:2.0px;stroke-linecap:butt;stroke-linejoin:miter;stroke-miterlimit:10;stroke-opacity:1;"/>
<path d="M 11.1,62.0 L 11.0,60.5 L 12.2,59.8" style="fill:none;stroke:#000000;stroke-width:2.0px;stroke-linecap:butt;stroke-linejoin:miter;stroke-miterlimit:10;stroke-opacity:1;"/>
<path d="M 33.6,45.8 L 34.8,45.1 L 36.1,45.7" style="fill:none;stroke:#000000;stroke-width:2.0px;stroke-linecap:butt;stroke-linejoin:miter;stroke-miterlimit:10;stroke-opacity:1;"/>
<path d="M 58.9,57.3 L 60.1,58.0 L 60.2,59.4" style="fill:none;stroke:#000000;stroke-width:2.0px;stroke-linecap:butt;stroke-linejoin:miter;stroke-miterlimit:10;stroke-opacity:1;"/>
<path d="M 161.6,137.3 L 162.9,137.9 L 164.0,137.1" style="fill:none;stroke:#000000;stroke-width:2.0px;stroke-linecap:butt;stroke-linejoin:miter;stroke-miterlimit:10;stroke-opacity:1;"/>
<path d="M 185.5,123.2 L 186.7,122.4 L 186.6,121.0" style="fill:none;stroke:#000000;stroke-width:2.0px;stroke-linecap:butt;stroke-linejoin:miter;stroke-miterlimit:10;stroke-opacity:1;"/>
<path d="M 207.8,79.4 L 209.0,78.6 L 208.9,77.2" style="fill:none;stroke:#000000;stroke-width:2.0px;stroke-linecap:butt;stroke-linejoin:miter;stroke-miterlimit:10;stroke-opacity:1;"/>
<path d="M 207.6,51.6 L 207.5,50.2 L 206.2,49.6" style="fill:none;stroke:#000000;stroke-width:2.0px;stroke-linecap:butt;stroke-linejoin:miter;stroke-miterlimit:10;stroke-opacity:1;"/>
<path d="M 183.5,38.0 L 182.2,37.3 L 181.0,38.1" style="fill:none;stroke:#000000;stroke-width:2.0px;stroke-linecap:butt;stroke-linejoin:miter;stroke-miterlimit:10;stroke-opacity:1;"/>
<path d="M 159.6,52.0 L 158.4,52.8 L 158.5,54.2" style="fill:none;stroke:#000000;stroke-width:2.0px;stroke-linecap:butt;stroke-linejoin:miter;stroke-miterlimit:10;stroke-opacity:1;"/>
<path class="atom-7" d="M 85.1 95.2 L 87.8 99.5 Q 88.0 99.9, 88.5 100.6 Q 88.9 101.4, 88.9 101.4 L 88.9 95.2 L 90.0 95.2 L 90.0 103.2 L 88.9 103.2 L 86.0 98.6 Q 85.7 98.0, 85.4 97.4 Q 85.0 96.8, 84.9 96.6 L 84.9 103.2 L 83.9 103.2 L 83.9 95.2 L 85.1 95.2 " fill="#0000FF"/>
<path class="atom-8" d="M 109.0 79.7 L 111.6 84.0 Q 111.9 84.4, 112.3 85.2 Q 112.7 85.9, 112.7 86.0 L 112.7 79.7 L 113.8 79.7 L 113.8 87.8 L 112.7 87.8 L 109.9 83.1 Q 109.5 82.6, 109.2 81.9 Q 108.8 81.3, 108.7 81.1 L 108.7 87.8 L 107.7 87.8 L 107.7 79.7 L 109.0 79.7 " fill="#0000FF"/>
<path class="atom-19" d="M 102.1 136.5 L 103.2 136.5 L 103.2 139.9 L 107.3 139.9 L 107.3 136.5 L 108.4 136.5 L 108.4 144.5 L 107.3 144.5 L 107.3 140.8 L 103.2 140.8 L 103.2 144.5 L 102.1 144.5 L 102.1 136.5 " fill="#FF0000"/>
<path class="atom-19" d="M 110.0 140.5 Q 110.0 138.6, 111.0 137.5 Q 111.9 136.4, 113.7 136.4 Q 115.5 136.4, 116.5 137.5 Q 117.4 138.6, 117.4 140.5 Q 117.4 142.5, 116.5 143.6 Q 115.5 144.7, 113.7 144.7 Q 112.0 144.7, 111.0 143.6 Q 110.0 142.5, 110.0 140.5 M 113.7 143.8 Q 115.0 143.8, 115.6 142.9 Q 116.3 142.1, 116.3 140.5 Q 116.3 138.9, 115.6 138.1 Q 115.0 137.3, 113.7 137.3 Q 112.5 137.3, 111.8 138.1 Q 111.2 138.9, 111.2 140.5 Q 111.2 142.1, 111.8 142.9 Q 112.5 143.8, 113.7 143.8 " fill="#FF0000"/>
<path class="legend" d="M 92.9 174.7 L 94.4 174.7 L 94.4 176.0 L 92.9 176.0 L 92.9 174.7 M 92.9 177.8 L 94.4 177.8 L 94.4 186.0 L 92.9 186.0 L 92.9 177.8 " fill="#000000"/>
<path class="legend" d="M 106.0 177.6 Q 107.4 177.6, 108.1 178.4 Q 108.8 179.1, 108.8 180.5 L 108.8 186.0 L 107.3 186.0 L 107.3 180.7 Q 107.3 179.7, 106.9 179.2 Q 106.5 178.8, 105.7 178.8 Q 105.0 178.8, 104.4 179.2 Q 103.8 179.5, 103.4 180.1 Q 103.4 180.2, 103.4 180.5 L 103.4 186.0 L 101.9 186.0 L 101.9 180.7 Q 101.9 179.7, 101.5 179.2 Q 101.1 178.8, 100.3 178.8 Q 99.6 178.8, 99.0 179.2 Q 98.4 179.5, 98.0 180.1 L 98.0 186.0 L 96.5 186.0 L 96.5 177.8 L 97.7 177.8 L 97.9 178.9 Q 99.0 177.6, 100.6 177.6 Q 102.5 177.6, 103.1 179.1 Q 104.2 177.6, 106.0 177.6 " fill="#000000"/>
<path class="legend" d="M 118.2 177.7 L 118.2 186.5 Q 118.2 190.0, 114.5 190.0 Q 112.6 190.0, 111.0 189.2 L 111.5 188.1 Q 112.4 188.5, 113.0 188.7 Q 113.7 188.8, 114.5 188.8 Q 115.7 188.8, 116.2 188.3 Q 116.7 187.7, 116.7 186.5 L 116.7 185.1 Q 115.8 186.1, 114.3 186.1 Q 112.6 186.1, 111.7 185.1 Q 110.7 184.0, 110.7 182.0 Q 110.7 179.9, 111.8 178.8 Q 113.0 177.6, 115.0 177.6 Q 116.0 177.6, 117.0 177.9 L 117.0 177.7 L 118.2 177.7 M 114.4 184.9 Q 115.3 184.9, 115.9 184.5 Q 116.5 184.0, 116.7 183.2 L 116.7 179.0 Q 115.9 178.8, 115.0 178.8 Q 113.7 178.8, 113.0 179.6 Q 112.3 180.5, 112.3 182.0 Q 112.3 183.4, 112.8 184.2 Q 113.4 184.9, 114.4 184.9 " fill="#000000"/>
<path class="legend" d="M 120.9 184.7 L 123.3 184.7 L 123.3 176.2 L 120.6 177.1 L 120.2 176.1 L 123.7 174.6 L 124.8 174.8 L 124.8 184.7 L 127.1 184.7 L 127.1 186.0 L 120.9 186.0 L 120.9 184.7 " fill="#000000"/>
<path class="bond-0 atom-0 atom-1" d="M 372.4,110.6 L 349.6,127.5" style="fill:none;fill-rule:evenodd;stroke:#000000;stroke-width:2.0px;stroke-linecap:butt;stroke-linejoin:miter;stroke-opacity:1"/>
<path class="bond-0 atom-0 atom-1" d="M 367.8,108.6 L 349.0,122.6" style="fill:none;fill-rule:evenodd;stroke:#000000;stroke-width:2.0px;stroke-linecap:butt;stroke-linejoin:miter;stroke-opacity:1"/>
<path class="bond-1 atom-1 atom-2" d="M 349.6,127.5 L 323.5,116.3" style="fill:none;fill-rule:evenodd;stroke:#000000;stroke-width:2.0px;stroke-linecap:butt;stroke-linejoin:miter;stroke-opacity:1"/>
<path class="bond-2 atom-2 atom-3" d="M 323.5,116.3 L 320.2,88.1" style="fill:none;fill-rule:evenodd;stroke:#000000;stroke-width:2.0px;stroke-linecap:butt;stroke-linejoin:miter;stroke-opacity:1"/>
<path class="bond-2 atom-2 atom-3" d="M 327.4,113.3 L 324.7,90.0" style="fill:none;fill-rule:evenodd;stroke:#000000;stroke-width:2.0px;stroke-linecap:butt;stroke-linejoin:miter;stroke-opacity:1"/>
<path class="bond-3 atom-3 atom-4" d="M 320.2,88.1 L 343.0,71.1" style="fill:none;fill-rule:evenodd;stroke:#000000;stroke-width:2.0px;stroke-linecap:butt;stroke-linejoin:miter;stroke-opacity:1"/>
<path class="bond-4 atom-4 atom-5" d="M 343.0,71.1 L 369.0,82.3" style="fill:none;fill-rule:evenodd;stroke:#000000;stroke-width:2.0px;stroke-linecap:butt;stroke-linejoin:miter;stroke-opacity:1"/>
<path class="bond-4 atom-4 atom-5" d="M 343.5,76.0 L 365.1,85.3" style="fill:none;fill-rule:evenodd;stroke:#000000;stroke-width:2.0px;stroke-linecap:butt;stroke-linejoin:miter;stroke-opacity:1"/>
<path class="bond-5 atom-5 atom-6" d="M 369.0,82.3 L 379.7,74.4" style="fill:none;fill-rule:evenodd;stroke:#000000;stroke-width:2.0px;stroke-linecap:butt;stroke-linejoin:miter;stroke-opacity:1"/>
<path class="bond-5 atom-5 atom-6" d="M 379.7,74.4 L 390.3,66.5" style="fill:none;fill-rule:evenodd;stroke:#A01EEF;stroke-width:2.0px;stroke-linecap:butt;stroke-linejoin:miter;stroke-opacity:1"/>
<path class="bond-6 atom-3 atom-7" d="M 320.2,88.1 L 294.1,76.8" style="fill:none;fill-rule:evenodd;stroke:#000000;stroke-width:2.0px;stroke-linecap:butt;stroke-linejoin:miter;stroke-opacity:1"/>
<path class="bond-7 atom-7 atom-8" d="M 293.8,74.4 L 284.3,81.5" style="fill:none;fill-rule:evenodd;stroke:#000000;stroke-width:2.0px;stroke-linecap:butt;stroke-linejoin:miter;stroke-opacity:1"/>
<path class="bond-7 atom-7 atom-8" d="M 284.3,81.5 L 274.7,88.6" style="fill:none;fill-rule:evenodd;stroke:#FF0000;stroke-width:2.0px;stroke-linecap:butt;stroke-linejoin:miter;stroke-opacity:1"/>
<path class="bond-7 atom-7 atom-8" d="M 296.4,77.8 L 286.8,84.9" style="fill:none;fill-rule:evenodd;stroke:#000000;stroke-width:2.0px;stroke-linecap:butt;stroke-linejoin:miter;stroke-opacity:1"/>
<path class="bond-7 atom-7 atom-8" d="M 286.8,84.9 L 277.2,92.1" style="fill:none;fill-rule:evenodd;stroke:#FF0000;stroke-width:2.0px;stroke-linecap:butt;stroke-linejoin:miter;stroke-opacity:1"/>
<path class="bond-8 atom-7 atom-9" d="M 294.1,76.8 L 292.8,65.3" style="fill:none;fill-rule:evenodd;stroke:#000000;stroke-width:2.0px;stroke-linecap:butt;stroke-linejoin:miter;stroke-opacity:1"/>
<path class="bond-8 atom-7 atom-9" d="M 292.8,65.3 L 291.4,53.8" style="fill:none;fill-rule:evenodd;stroke:#FF0000;stroke-width:2.0px;stroke-linecap:butt;stroke-linejoin:miter;stroke-opacity:1"/>
<path class="bond-9 atom-2 atom-10" d="M 323.5,116.3 L 314.4,123.0" style="fill:none;fill-rule:evenodd;stroke:#000000;stroke-width:2.0px;stroke-linecap:butt;stroke-linejoin:miter;stroke-opacity:1"/>
<path class="bond-9 atom-2 atom-10" d="M 314.4,123.0 L 305.3,129.8" style="fill:none;fill-rule:evenodd;stroke:#FF0000;stroke-width:2.0px;stroke-linecap:butt;stroke-linejoin:miter;stroke-opacity:1"/>
<path class="bond-10 atom-5 atom-0" d="M 369.0,82.3 L 372.4,110.6" style="fill:none;fill-rule:evenodd;stroke:#000000;stroke-width:2.0px;stroke-linecap:butt;stroke-linejoin:miter;stroke-opacity:1"/>
<path d="M 371.2,111.4 L 372.4,110.6 L 372.2,109.1" style="fill:none;stroke:#000000;stroke-width:2.0px;stroke-linecap:butt;stroke-linejoin:miter;stroke-miterlimit:10;stroke-opacity:1;"/>
<path d="M 350.7,126.7 L 349.6,127.5 L 348.3,127.0" style="fill:none;stroke:#000000;stroke-width:2.0px;stroke-linecap:butt;stroke-linejoin:miter;stroke-miterlimit:10;stroke-opacity:1;"/>
<path d="M 341.8,72.0 L 343.0,71.1 L 344.3,71.7" style="fill:none;stroke:#000000;stroke-width:2.0px;stroke-linecap:butt;stroke-linejoin:miter;stroke-miterlimit:10;stroke-opacity:1;"/>
<path d="M 295.4,77.4 L 294.1,76.8 L 294.0,76.3" style="fill:none;stroke:#000000;stroke-width:2.0px;stroke-linecap:butt;stroke-linejoin:miter;stroke-miterlimit:10;stroke-opacity:1;"/>
<path class="atom-6" d="M 391.3 61.3 L 392.4 61.3 L 392.4 69.4 L 391.3 69.4 L 391.3 61.3 " fill="#A01EEF"/>
<path class="atom-8" d="M 267.6 93.8 Q 267.6 91.9, 268.6 90.8 Q 269.5 89.7, 271.3 89.7 Q 273.1 89.7, 274.1 90.8 Q 275.0 91.9, 275.0 93.8 Q 275.0 95.8, 274.1 96.9 Q 273.1 98.0, 271.3 98.0 Q 269.6 98.0, 268.6 96.9 Q 267.6 95.8, 267.6 93.8 M 271.3 97.1 Q 272.6 97.1, 273.2 96.3 Q 273.9 95.4, 273.9 93.8 Q 273.9 92.2, 273.2 91.4 Q 272.6 90.6, 271.3 90.6 Q 270.1 90.6, 269.4 91.4 Q 268.8 92.2, 268.8 93.8 Q 268.8 95.4, 269.4 96.3 Q 270.1 97.1, 271.3 97.1 " fill="#FF0000"/>
<path class="atom-9" d="M 287.1 48.6 Q 287.1 46.7, 288.1 45.6 Q 289.0 44.6, 290.8 44.6 Q 292.6 44.6, 293.5 45.6 Q 294.5 46.7, 294.5 48.6 Q 294.5 50.6, 293.5 51.7 Q 292.6 52.8, 290.8 52.8 Q 289.0 52.8, 288.1 51.7 Q 287.1 50.6, 287.1 48.6 M 290.8 51.9 Q 292.0 51.9, 292.7 51.1 Q 293.4 50.3, 293.4 48.6 Q 293.4 47.1, 292.7 46.3 Q 292.0 45.5, 290.8 45.5 Q 289.6 45.5, 288.9 46.3 Q 288.2 47.1, 288.2 48.6 Q 288.2 50.3, 288.9 51.1 Q 289.6 51.9, 290.8 51.9 " fill="#FF0000"/>
<path class="atom-9" d="M 295.7 44.6 L 296.8 44.6 L 296.8 48.1 L 300.9 48.1 L 300.9 44.6 L 302.0 44.6 L 302.0 52.7 L 300.9 52.7 L 300.9 49.0 L 296.8 49.0 L 296.8 52.7 L 295.7 52.7 L 295.7 44.6 " fill="#FF0000"/>
<path class="atom-10" d="M 289.1 129.3 L 290.2 129.3 L 290.2 132.7 L 294.3 132.7 L 294.3 129.3 L 295.4 129.3 L 295.4 137.3 L 294.3 137.3 L 294.3 133.6 L 290.2 133.6 L 290.2 137.3 L 289.1 137.3 L 289.1 129.3 " fill="#FF0000"/>
<path class="atom-10" d="M 297.0 133.3 Q 297.0 131.3, 298.0 130.3 Q 298.9 129.2, 300.7 129.2 Q 302.5 129.2, 303.5 130.3 Q 304.4 131.3, 304.4 133.3 Q 304.4 135.2, 303.4 136.3 Q 302.5 137.4, 300.7 137.4 Q 298.9 137.4, 298.0 136.3 Q 297.0 135.2, 297.0 133.3 M 300.7 136.5 Q 301.9 136.5, 302.6 135.7 Q 303.3 134.9, 303.3 133.3 Q 303.3 131.7, 302.6 130.9 Q 301.9 130.1, 300.7 130.1 Q 299.5 130.1, 298.8 130.9 Q 298.2 131.7, 298.2 133.3 Q 298.2 134.9, 298.8 135.7 Q 299.5 136.5, 300.7 136.5 " fill="#FF0000"/>
<path class="legend" d="M 312.5 174.7 L 314.0 174.7 L 314.0 176.0 L 312.5 176.0 L 312.5 174.7 M 312.5 177.8 L 314.0 177.8 L 314.0 186.0 L 312.5 186.0 L 312.5 177.8 " fill="#000000"/>
<path class="legend" d="M 325.6 177.6 Q 327.0 177.6, 327.7 178.4 Q 328.4 179.1, 328.4 180.5 L 328.4 186.0 L 326.9 186.0 L 326.9 180.7 Q 326.9 179.7, 326.5 179.2 Q 326.1 178.8, 325.3 178.8 Q 324.6 178.8, 324.0 179.2 Q 323.3 179.5, 323.0 180.1 Q 323.0 180.2, 323.0 180.5 L 323.0 186.0 L 321.5 186.0 L 321.5 180.7 Q 321.5 179.7, 321.1 179.2 Q 320.7 178.8, 319.9 178.8 Q 319.2 178.8, 318.6 179.2 Q 318.0 179.5, 317.6 180.1 L 317.6 186.0 L 316.1 186.0 L 316.1 177.8 L 317.3 177.8 L 317.5 178.9 Q 318.5 177.6, 320.2 177.6 Q 322.1 177.6, 322.7 179.1 Q 323.8 177.6, 325.6 177.6 " fill="#000000"/>
<path class="legend" d="M 337.8 177.7 L 337.8 186.5 Q 337.8 190.0, 334.1 190.0 Q 332.3 190.0, 330.6 189.2 L 331.2 188.1 Q 332.0 188.5, 332.6 188.7 Q 333.3 188.8, 334.1 188.8 Q 335.3 188.8, 335.8 188.3 Q 336.3 187.7, 336.3 186.5 L 336.3 185.1 Q 335.4 186.1, 334.0 186.1 Q 332.2 186.1, 331.3 185.1 Q 330.3 184.0, 330.3 182.0 Q 330.3 179.9, 331.5 178.8 Q 332.6 177.6, 334.6 177.6 Q 335.6 177.6, 336.6 177.9 L 336.6 177.7 L 337.8 177.7 M 334.0 184.9 Q 334.9 184.9, 335.5 184.5 Q 336.1 184.0, 336.3 183.2 L 336.3 179.0 Q 335.5 178.8, 334.6 178.8 Q 333.3 178.8, 332.6 179.6 Q 331.9 180.5, 331.9 182.0 Q 331.9 183.4, 332.4 184.2 Q 333.0 184.9, 334.0 184.9 " fill="#000000"/>
<path class="legend" d="M 339.9 176.8 Q 340.3 175.7, 341.3 175.1 Q 342.3 174.5, 343.7 174.5 Q 345.4 174.5, 346.3 175.5 Q 347.3 176.4, 347.3 178.0 Q 347.3 179.7, 346.1 181.3 Q 344.8 182.8, 342.3 184.7 L 347.5 184.7 L 347.5 186.0 L 339.9 186.0 L 339.9 184.9 Q 342.0 183.4, 343.2 182.3 Q 344.5 181.2, 345.1 180.2 Q 345.7 179.2, 345.7 178.1 Q 345.7 177.0, 345.2 176.4 Q 344.6 175.8, 343.7 175.8 Q 342.8 175.8, 342.1 176.2 Q 341.5 176.5, 341.1 177.4 L 339.9 176.8 " fill="#000000"/>
<path class="bond-0 atom-0 atom-1" d="M 513.0,155.8 L 497.4,132.1" style="fill:none;fill-rule:evenodd;stroke:#000000;stroke-width:2.0px;stroke-linecap:butt;stroke-linejoin:miter;stroke-opacity:1"/>
<path class="bond-0 atom-0 atom-1" d="M 515.2,151.4 L 502.3,131.8" style="fill:none;fill-rule:evenodd;stroke:#000000;stroke-width:2.0px;stroke-linecap:butt;stroke-linejoin:miter;stroke-opacity:1"/>
<path class="bond-1 atom-1 atom-2" d="M 497.4,132.1 L 510.2,106.7" style="fill:none;fill-rule:evenodd;stroke:#000000;stroke-width:2.0px;stroke-linecap:butt;stroke-linejoin:miter;stroke-opacity:1"/>
<path class="bond-2 atom-2 atom-3" d="M 510.2,106.7 L 538.6,105.1" style="fill:none;fill-rule:evenodd;stroke:#000000;stroke-width:2.0px;stroke-linecap:butt;stroke-linejoin:miter;stroke-opacity:1"/>
<path class="bond-2 atom-2 atom-3" d="M 512.9,110.8 L 536.3,109.5" style="fill:none;fill-rule:evenodd;stroke:#000000;stroke-width:2.0px;stroke-linecap:butt;stroke-linejoin:miter;stroke-opacity:1"/>
<path class="bond-3 atom-3 atom-4" d="M 538.6,105.1 L 554.1,128.8" style="fill:none;fill-rule:evenodd;stroke:#000000;stroke-width:2.0px;stroke-linecap:butt;stroke-linejoin:miter;stroke-opacity:1"/>
<path class="bond-4 atom-4 atom-5" d="M 554.1,128.8 L 541.4,154.2" style="fill:none;fill-rule:evenodd;stroke:#000000;stroke-width:2.0px;stroke-linecap:butt;stroke-linejoin:miter;stroke-opacity:1"/>
<path class="bond-4 atom-4 atom-5" d="M 549.2,129.1 L 538.7,150.1" style="fill:none;fill-rule:evenodd;stroke:#000000;stroke-width:2.0px;stroke-linecap:butt;stroke-linejoin:miter;stroke-opacity:1"/>
<path class="bond-5 atom-3 atom-6" d="M 538.6,105.1 L 551.3,79.7" style="fill:none;fill-rule:evenodd;stroke:#000000;stroke-width:2.0px;stroke-linecap:butt;stroke-linejoin:miter;stroke-opacity:1"/>
<path class="bond-6 atom-6 atom-7" d="M 551.3,79.7 L 558.5,52.2" style="fill:none;fill-rule:evenodd;stroke:#000000;stroke-width:2.0px;stroke-linecap:butt;stroke-linejoin:miter;stroke-opacity:1"/>
<path class="bond-7 atom-7 atom-8" d="M 561.2,52.1 L 553.8,43.1" style="fill:none;fill-rule:evenodd;stroke:#000000;stroke-width:2.0px;stroke-linecap:butt;stroke-linejoin:miter;stroke-opacity:1"/>
<path class="bond-7 atom-7 atom-8" d="M 553.8,43.1 L 546.4,34.0" style="fill:none;fill-rule:evenodd;stroke:#FF0000;stroke-width:2.0px;stroke-linecap:butt;stroke-linejoin:miter;stroke-opacity:1"/>
<path class="bond-7 atom-7 atom-8" d="M 557.9,54.8 L 550.5,45.8" style="fill:none;fill-rule:evenodd;stroke:#000000;stroke-width:2.0px;stroke-linecap:butt;stroke-linejoin:miter;stroke-opacity:1"/>
<path class="bond-7 atom-7 atom-8" d="M 550.5,45.8 L 543.1,36.7" style="fill:none;fill-rule:evenodd;stroke:#FF0000;stroke-width:2.0px;stroke-linecap:butt;stroke-linejoin:miter;stroke-opacity:1"/>
<path class="bond-8 atom-7 atom-9" d="M 558.5,52.2 L 570.7,51.5" style="fill:none;fill-rule:evenodd;stroke:#000000;stroke-width:2.0px;stroke-linecap:butt;stroke-linejoin:miter;stroke-opacity:1"/>
<path class="bond-8 atom-7 atom-9" d="M 570.7,51.5 L 582.9,50.8" style="fill:none;fill-rule:evenodd;stroke:#0000FF;stroke-width:2.0px;stroke-linecap:butt;stroke-linejoin:miter;stroke-opacity:1"/>
<path class="bond-9 atom-9 atom-10" d="M 588.8,55.6 L 593.0,66.3" style="fill:none;fill-rule:evenodd;stroke:#0000FF;stroke-width:2.0px;stroke-linecap:butt;stroke-linejoin:miter;stroke-opacity:1"/>
<path class="bond-9 atom-9 atom-10" d="M 593.0,66.3 L 597.2,77.1" style="fill:none;fill-rule:evenodd;stroke:#000000;stroke-width:2.0px;stroke-linecap:butt;stroke-linejoin:miter;stroke-opacity:1"/>
<path class="bond-10 atom-10 atom-11" d="M 595.2,78.8 L 607.3,81.9" style="fill:none;fill-rule:evenodd;stroke:#000000;stroke-width:2.0px;stroke-linecap:butt;stroke-linejoin:miter;stroke-opacity:1"/>
<path class="bond-10 atom-10 atom-11" d="M 607.3,81.9 L 619.5,85.1" style="fill:none;fill-rule:evenodd;stroke:#FF0000;stroke-width:2.0px;stroke-linecap:butt;stroke-linejoin:miter;stroke-opacity:1"/>
<path class="bond-10 atom-10 atom-11" d="M 596.3,74.6 L 608.4,77.8" style="fill:none;fill-rule:evenodd;stroke:#000000;stroke-width:2.0px;stroke-linecap:butt;stroke-linejoin:miter;stroke-opacity:1"/>
<path class="bond-10 atom-10 atom-11" d="M 608.4,77.8 L 620.6,81.0" style="fill:none;fill-rule:evenodd;stroke:#FF0000;stroke-width:2.0px;stroke-linecap:butt;stroke-linejoin:miter;stroke-opacity:1"/>
<path class="bond-11 atom-10 atom-12" d="M 597.2,77.1 L 588.2,84.4" style="fill:none;fill-rule:evenodd;stroke:#000000;stroke-width:2.0px;stroke-linecap:butt;stroke-linejoin:miter;stroke-opacity:1"/>
<path class="bond-11 atom-10 atom-12" d="M 588.2,84.4 L 579.2,91.8" style="fill:none;fill-rule:evenodd;stroke:#0000FF;stroke-width:2.0px;stroke-linecap:butt;stroke-linejoin:miter;stroke-opacity:1"/>
<path class="bond-12 atom-6 atom-13" d="M 551.3,79.7 L 524.8,69.7" style="fill:none;fill-rule:evenodd;stroke:#000000;stroke-width:2.0px;stroke-linecap:butt;stroke-linejoin:miter;stroke-opacity:1"/>
<path class="bond-13 atom-13 atom-14" d="M 524.8,69.7 L 520.2,41.6" style="fill:none;fill-rule:evenodd;stroke:#000000;stroke-width:2.0px;stroke-linecap:butt;stroke-linejoin:miter;stroke-opacity:1"/>
<path class="bond-13 atom-13 atom-14" d="M 520.2,67.9 L 516.4,44.7" style="fill:none;fill-rule:evenodd;stroke:#000000;stroke-width:2.0px;stroke-linecap:butt;stroke-linejoin:miter;stroke-opacity:1"/>
<path class="bond-14 atom-14 atom-15" d="M 520.2,41.6 L 493.6,31.6" style="fill:none;fill-rule:evenodd;stroke:#000000;stroke-width:2.0px;stroke-linecap:butt;stroke-linejoin:miter;stroke-opacity:1"/>
<path class="bond-15 atom-15 atom-16" d="M 493.6,31.6 L 471.6,49.6" style="fill:none;fill-rule:evenodd;stroke:#000000;stroke-width:2.0px;stroke-linecap:butt;stroke-linejoin:miter;stroke-opacity:1"/>
<path class="bond-15 atom-15 atom-16" d="M 494.4,36.4 L 476.2,51.3" style="fill:none;fill-rule:evenodd;stroke:#000000;stroke-width:2.0px;stroke-linecap:butt;stroke-linejoin:miter;stroke-opacity:1"/>
<path class="bond-16 atom-16 atom-17" d="M 471.6,49.6 L 476.2,77.6" style="fill:none;fill-rule:evenodd;stroke:#000000;stroke-width:2.0px;stroke-linecap:butt;stroke-linejoin:miter;stroke-opacity:1"/>
<path class="bond-17 atom-17 atom-18" d="M 476.2,77.6 L 502.8,87.6" style="fill:none;fill-rule:evenodd;stroke:#000000;stroke-width:2.0px;stroke-linecap:butt;stroke-linejoin:miter;stroke-opacity:1"/>
<path class="bond-17 atom-17 atom-18" d="M 480.0,74.5 L 502.0,82.8" style="fill:none;fill-rule:evenodd;stroke:#000000;stroke-width:2.0px;stroke-linecap:butt;stroke-linejoin:miter;stroke-opacity:1"/>
<path class="bond-18 atom-5 atom-0" d="M 541.4,154.2 L 513.0,155.8" style="fill:none;fill-rule:evenodd;stroke:#000000;stroke-width:2.0px;stroke-linecap:butt;stroke-linejoin:miter;stroke-opacity:1"/>
<path class="bond-19 atom-12 atom-6" d="M 571.2,92.5 L 561.3,86.1" style="fill:none;fill-rule:evenodd;stroke:#0000FF;stroke-width:2.0px;stroke-linecap:butt;stroke-linejoin:miter;stroke-opacity:1"/>
<path class="bond-19 atom-12 atom-6" d="M 561.3,86.1 L 551.3,79.7" style="fill:none;fill-rule:evenodd;stroke:#000000;stroke-width:2.0px;stroke-linecap:butt;stroke-linejoin:miter;stroke-opacity:1"/>
<path class="bond-20 atom-18 atom-13" d="M 502.8,87.6 L 524.8,69.7" style="fill:none;fill-rule:evenodd;stroke:#000000;stroke-width:2.0px;stroke-linecap:butt;stroke-linejoin:miter;stroke-opacity:1"/>
<path d="M 512.2,154.6 L 513.0,155.8 L 514.4,155.7" style="fill:none;stroke:#000000;stroke-width:2.0px;stroke-linecap:butt;stroke-linejoin:miter;stroke-miterlimit:10;stroke-opacity:1;"/>
<path d="M 498.2,133.3 L 497.4,132.1 L 498.1,130.8" style="fill:none;stroke:#000000;stroke-width:2.0px;stroke-linecap:butt;stroke-linejoin:miter;stroke-miterlimit:10;stroke-opacity:1;"/>
<path d="M 509.6,108.0 L 510.2,106.7 L 511.6,106.6" style="fill:none;stroke:#000000;stroke-width:2.0px;stroke-linecap:butt;stroke-linejoin:miter;stroke-miterlimit:10;stroke-opacity:1;"/>
<path d="M 553.4,127.6 L 554.1,128.8 L 553.5,130.1" style="fill:none;stroke:#000000;stroke-width:2.0px;stroke-linecap:butt;stroke-linejoin:miter;stroke-miterlimit:10;stroke-opacity:1;"/>
<path d="M 542.0,152.9 L 541.4,154.2 L 539.9,154.3" style="fill:none;stroke:#000000;stroke-width:2.0px;stroke-linecap:butt;stroke-linejoin:miter;stroke-miterlimit:10;stroke-opacity:1;"/>
<path d="M 558.2,53.6 L 558.5,52.2 L 559.2,52.2" style="fill:none;stroke:#000000;stroke-width:2.0px;stroke-linecap:butt;stroke-linejoin:miter;stroke-miterlimit:10;stroke-opacity:1;"/>
<path d="M 597.0,76.5 L 597.2,77.1 L 596.8,77.5" style="fill:none;stroke:#000000;stroke-width:2.0px;stroke-linecap:butt;stroke-linejoin:miter;stroke-miterlimit:10;stroke-opacity:1;"/>
<path d="M 520.4,43.0 L 520.2,41.6 L 518.9,41.1" style="fill:none;stroke:#000000;stroke-width:2.0px;stroke-linecap:butt;stroke-linejoin:miter;stroke-miterlimit:10;stroke-opacity:1;"/>
<path d="M 494.9,32.1 L 493.6,31.6 L 492.5,32.5" style="fill:none;stroke:#000000;stroke-width:2.0px;stroke-linecap:butt;stroke-linejoin:miter;stroke-miterlimit:10;stroke-opacity:1;"/>
<path d="M 472.7,48.7 L 471.6,49.6 L 471.9,51.0" style="fill:none;stroke:#000000;stroke-width:2.0px;stroke-linecap:butt;stroke-linejoin:miter;stroke-miterlimit:10;stroke-opacity:1;"/>
<path d="M 476.0,76.2 L 476.2,77.6 L 477.5,78.1" style="fill:none;stroke:#000000;stroke-width:2.0px;stroke-linecap:butt;stroke-linejoin:miter;stroke-miterlimit:10;stroke-opacity:1;"/>
<path d="M 501.4,87.1 L 502.8,87.6 L 503.9,86.7" style="fill:none;stroke:#000000;stroke-width:2.0px;stroke-linecap:butt;stroke-linejoin:miter;stroke-miterlimit:10;stroke-opacity:1;"/>
<path class="atom-8" d="M 536.9 30.3 Q 536.9 28.3, 537.8 27.3 Q 538.8 26.2, 540.6 26.2 Q 542.3 26.2, 543.3 27.3 Q 544.3 28.3, 544.3 30.3 Q 544.3 32.2, 543.3 33.3 Q 542.3 34.4, 540.6 34.4 Q 538.8 34.4, 537.8 33.3 Q 536.9 32.2, 536.9 30.3 M 540.6 33.5 Q 541.8 33.5, 542.5 32.7 Q 543.1 31.9, 543.1 30.3 Q 543.1 28.7, 542.5 27.9 Q 541.8 27.1, 540.6 27.1 Q 539.3 27.1, 538.7 27.9 Q 538.0 28.7, 538.0 30.3 Q 538.0 31.9, 538.7 32.7 Q 539.3 33.5, 540.6 33.5 " fill="#FF0000"/>
<path class="atom-9" d="M 585.1 46.6 L 587.8 50.9 Q 588.0 51.3, 588.4 52.0 Q 588.9 52.8, 588.9 52.8 L 588.9 46.6 L 590.0 46.6 L 590.0 54.6 L 588.8 54.6 L 586.0 50.0 Q 585.7 49.4, 585.3 48.8 Q 585.0 48.2, 584.9 48.0 L 584.9 54.6 L 583.9 54.6 L 583.9 46.6 L 585.1 46.6 " fill="#0000FF"/>
<path class="atom-9" d="M 591.5 46.6 L 592.6 46.6 L 592.6 50.0 L 596.7 50.0 L 596.7 46.6 L 597.8 46.6 L 597.8 54.6 L 596.7 54.6 L 596.7 50.9 L 592.6 50.9 L 592.6 54.6 L 591.5 54.6 L 591.5 46.6 " fill="#0000FF"/>
<path class="atom-11" d="M 621.0 84.3 Q 621.0 82.4, 621.9 81.3 Q 622.9 80.2, 624.7 80.2 Q 626.5 80.2, 627.4 81.3 Q 628.4 82.4, 628.4 84.3 Q 628.4 86.3, 627.4 87.4 Q 626.4 88.5, 624.7 88.5 Q 622.9 88.5, 621.9 87.4 Q 621.0 86.3, 621.0 84.3 M 624.7 87.6 Q 625.9 87.6, 626.6 86.8 Q 627.2 85.9, 627.2 84.3 Q 627.2 82.7, 626.6 82.0 Q 625.9 81.1, 624.7 81.1 Q 623.4 81.1, 622.8 81.9 Q 622.1 82.7, 622.1 84.3 Q 622.1 86.0, 622.8 86.8 Q 623.4 87.6, 624.7 87.6 " fill="#FF0000"/>
<path class="atom-12" d="M 573.4 91.0 L 576.1 95.3 Q 576.3 95.7, 576.8 96.5 Q 577.2 97.2, 577.2 97.3 L 577.2 91.0 L 578.3 91.0 L 578.3 99.1 L 577.2 99.1 L 574.3 94.4 Q 574.0 93.9, 573.7 93.3 Q 573.3 92.6, 573.2 92.4 L 573.2 99.1 L 572.2 99.1 L 572.2 91.0 L 573.4 91.0 " fill="#0000FF"/>
<path class="atom-12" d="M 572.1 99.9 L 573.2 99.9 L 573.2 103.3 L 577.3 103.3 L 577.3 99.9 L 578.4 99.9 L 578.4 107.9 L 577.3 107.9 L 577.3 104.2 L 573.2 104.2 L 573.2 107.9 L 572.1 107.9 L 572.1 99.9 " fill="#0000FF"/>
<path class="legend" d="M 532.5 174.7 L 534.0 174.7 L 534.0 176.0 L 532.5 176.0 L 532.5 174.7 M 532.5 177.8 L 534.0 177.8 L 534.0 186.0 L 532.5 186.0 L 532.5 177.8 " fill="#000000"/>
<path class="legend" d="M 545.6 177.6 Q 547.0 177.6, 547.7 178.4 Q 548.4 179.1, 548.4 180.5 L 548.4 186.0 L 546.9 186.0 L 546.9 180.7 Q 546.9 179.7, 546.5 179.2 Q 546.1 178.8, 545.3 178.8 Q 544.6 178.8, 544.0 179.2 Q 543.4 179.5, 543.0 180.1 Q 543.0 180.2, 543.0 180.5 L 543.0 186.0 L 541.5 186.0 L 541.5 180.7 Q 541.5 179.7, 541.1 179.2 Q 540.7 178.8, 539.9 178.8 Q 539.2 178.8, 538.6 179.2 Q 538.0 179.5, 537.6 180.1 L 537.6 186.0 L 536.1 186.0 L 536.1 177.8 L 537.3 177.8 L 537.5 178.9 Q 538.6 177.6, 540.2 177.6 Q 542.1 177.6, 542.7 179.1 Q 543.8 177.6, 545.6 177.6 " fill="#000000"/>
<path class="legend" d="M 557.8 177.7 L 557.8 186.5 Q 557.8 190.0, 554.1 190.0 Q 552.3 190.0, 550.6 189.2 L 551.2 188.1 Q 552.0 188.5, 552.6 188.7 Q 553.3 188.8, 554.1 188.8 Q 555.3 188.8, 555.8 188.3 Q 556.3 187.7, 556.3 186.5 L 556.3 185.1 Q 555.4 186.1, 554.0 186.1 Q 552.2 186.1, 551.3 185.1 Q 550.3 184.0, 550.3 182.0 Q 550.3 179.9, 551.5 178.8 Q 552.6 177.6, 554.6 177.6 Q 555.6 177.6, 556.6 177.9 L 556.6 177.7 L 557.8 177.7 M 554.1 184.9 Q 554.9 184.9, 555.5 184.5 Q 556.1 184.0, 556.3 183.2 L 556.3 179.0 Q 555.5 178.8, 554.6 178.8 Q 553.3 178.8, 552.6 179.6 Q 551.9 180.5, 551.9 182.0 Q 551.9 183.4, 552.4 184.2 Q 553.0 184.9, 554.1 184.9 " fill="#000000"/>
<path class="legend" d="M 565.3 180.0 Q 566.4 180.3, 566.9 181.1 Q 567.5 181.8, 567.5 182.9 Q 567.5 183.8, 567.0 184.6 Q 566.5 185.3, 565.6 185.7 Q 564.8 186.1, 563.6 186.1 Q 562.4 186.1, 561.5 185.7 Q 560.6 185.3, 559.9 184.4 L 560.8 183.5 Q 561.5 184.3, 562.1 184.6 Q 562.7 184.9, 563.6 184.9 Q 564.6 184.9, 565.3 184.3 Q 565.9 183.8, 565.9 182.9 Q 565.9 181.7, 565.2 181.2 Q 564.6 180.7, 563.2 180.7 L 562.4 180.7 L 562.4 179.5 L 563.1 179.5 Q 564.3 179.5, 565.0 179.0 Q 565.6 178.4, 565.6 177.4 Q 565.6 176.7, 565.1 176.3 Q 564.6 175.8, 563.6 175.8 Q 562.7 175.8, 562.1 176.1 Q 561.5 176.5, 561.1 177.3 L 560.0 176.7 Q 560.4 175.8, 561.3 175.2 Q 562.3 174.5, 563.6 174.5 Q 565.3 174.5, 566.3 175.3 Q 567.2 176.1, 567.2 177.4 Q 567.2 178.3, 566.7 179.0 Q 566.3 179.6, 565.3 180.0 " fill="#000000"/>
</svg>